<svg id="Layer_3" data-name="Layer 3" xmlns="http://www.w3.org/2000/svg" xmlns:xlink="http://www.w3.org/1999/xlink" viewBox="0 0 267.192 55.201"><defs><style>.cls-1{fill:none;}.cls-2{fill:#ffc8a9;}.cls-3{clip-path:url(#clip-path);}.cls-4{clip-path:url(#clip-path-2);}.cls-5{clip-path:url(#clip-path-3);}.cls-6{clip-path:url(#clip-path-4);}.cls-7{clip-path:url(#clip-path-5);}.cls-8{clip-path:url(#clip-path-6);}.cls-9{fill:#fff;}</style><clipPath id="clip-path" transform="translate(1.192 1.801)"><path class="cls-1" d="M34.847,1.579a25.874,25.874,0,0,0-33.2,15.514q-0.04.11-.079,0.221a26.651,26.651,0,0,0-1,14.478c20.208,1.751,9.55-33.423,34.276-30.213"/></clipPath><clipPath id="clip-path-2" transform="translate(1.192 1.801)"><path class="cls-1" d="M22.93,15.657c-3.37,9.726-5.5,20.39-20.98,20.662h0c9.562,7.361,20.835,2.791,27.235-12.374,3.815-9.037,15.992-13.7,21.7-5.034C45.668,1.111,27.759,1.718,22.93,15.657"/></clipPath><clipPath id="clip-path-3" transform="translate(1.192 1.801)"><path class="cls-1" d="M31.573,52c9.2-2.045,18.923-10.617,19.684-20.57,0.742-9.766-9.793-17.953-18.236-1.9C27.58,39.867,17.408,48.715,5.107,41.978l0.1,0.141C13.329,53,27.844,49.661,35.491,39.909c1.349-1.723,5.344-7.181,7.7-4.665C47,39.32,36.834,49.725,31.573,52"/></clipPath><clipPath id="clip-path-4" transform="translate(1.192 1.801)"><path class="cls-1" d="M1.062,18.856c-1.284,4.922,5.383,8.589,8.956-2.123,2.223-6.68,5.543-16.647,18-16.647A25.987,25.987,0,0,0,1.062,18.856"/></clipPath><clipPath id="clip-path-5" transform="translate(1.192 1.801)"><path class="cls-1" d="M1.951,36.321C16.267,41.761,22.4,30.513,27.4,17.828c3.009-7.623,13.213-12.453,21.24-4.293C41.754,1.422,27.2,3.3,22.93,15.656c-3.37,9.726-5.5,20.389-20.98,20.661h0v0Z"/></clipPath><clipPath id="clip-path-6" transform="translate(1.192 1.801)"><path class="cls-1" d="M48.12,40.337c4.486-6.949-2.009-19.428-11.4-6.988-6.357,8.425-19.406,19.214-31.079,8.91C17.707,48.45,27.66,39.711,33.02,29.526c8.444-16.047,18.978-7.86,18.236,1.9a19.234,19.234,0,0,1-3.135,8.9"/></clipPath></defs><title>logo</title><path class="cls-2" d="M34.847,1.579a25.874,25.874,0,0,0-33.2,15.514q-0.04.11-.079,0.221a26.651,26.651,0,0,0-1,14.478c20.208,1.751,9.55-33.423,34.276-30.213" transform="translate(1.192 1.801)"/><g class="cls-3"><rect class="cls-2" width="36.039" height="35.345"/></g><path class="cls-2" d="M22.93,15.657c-3.37,9.726-5.5,20.39-20.98,20.662h0c9.562,7.361,20.835,2.791,27.235-12.374,3.815-9.037,15.992-13.7,21.7-5.034C45.668,1.111,27.759,1.718,22.93,15.657" transform="translate(1.192 1.801)"/><g class="cls-4"><rect class="cls-2" x="3.142" y="2.913" width="48.936" height="42.565"/></g><path class="cls-2" d="M31.573,52c9.2-2.045,18.923-10.617,19.684-20.57,0.742-9.766-9.793-17.953-18.236-1.9C27.58,39.867,17.408,48.715,5.107,41.978l0.1,0.141C13.329,53,27.844,49.661,35.491,39.909c1.349-1.723,5.344-7.181,7.7-4.665C47,39.32,36.834,49.725,31.573,52" transform="translate(1.192 1.801)"/><g class="cls-5"><rect class="cls-2" x="4.931" y="13.291" width="47.219" height="39.917" transform="translate(0.923 2.034) rotate(-0.465)"/></g><path class="cls-2" d="M1.062,18.856c-1.284,4.922,5.383,8.589,8.956-2.123,2.223-6.68,5.543-16.647,18-16.647A25.987,25.987,0,0,0,1.062,18.856" transform="translate(1.192 1.801)"/><g class="cls-6"><rect class="cls-2" x="0.969" y="1.298" width="28.236" height="27.952"/></g><path class="cls-2" d="M1.951,36.321C16.267,41.761,22.4,30.513,27.4,17.828c3.009-7.623,13.213-12.453,21.24-4.293C41.754,1.422,27.2,3.3,22.93,15.656c-3.37,9.726-5.5,20.389-20.98,20.661h0v0Z" transform="translate(1.192 1.801)"/><g class="cls-7"><rect class="cls-2" x="3.142" y="3.227" width="46.695" height="40.336"/></g><path class="cls-2" d="M48.12,40.337c4.486-6.949-2.009-19.428-11.4-6.988-6.357,8.425-19.406,19.214-31.079,8.91C17.707,48.45,27.66,39.711,33.02,29.526c8.444-16.047,18.978-7.86,18.236,1.9a19.234,19.234,0,0,1-3.135,8.9" transform="translate(1.192 1.801)"/><g class="cls-8"><rect class="cls-2" x="6.836" y="15.279" width="46.961" height="39.085"/></g><path class="cls-9" d="M116.495,4.865l-8.706,43.681h-6.655L83.286,17.969,77.191,48.545H69.168L77.875,4.865h6.654L102.44,35.442l6.032-30.577h8.022Z" transform="translate(1.192 1.801)"/><path class="cls-9" d="M150.2,38.436H128.311l-6.282,10.109h-8.644l28.3-43.681H149.7l10.821,43.681H152.5Zm-1.493-6.365-4.415-19.219-12,19.219H148.71Z" transform="translate(1.192 1.801)"/><path class="cls-9" d="M222.468,4.865l-8.707,43.681h-7.65l5.66-28.642-18.6,23.651h-3.607l-9.95-24.212-5.784,29.2h-7.712l8.707-43.681h6.592l11.506,29.079L215.5,4.865h6.966Z" transform="translate(1.192 1.801)"/><path class="cls-9" d="M240.875,11.667l-2.239,11.357h21.083L258.413,29.7H237.268l-2.363,12.044h24.627l-1.368,6.8H225.514l8.707-43.681H266l-1.368,6.8H240.875Z" transform="translate(1.192 1.801)"/></svg>