<?xml version="1.0" encoding="UTF-8" standalone="no"?>
<!-- Created with Inkscape (http://www.inkscape.org/) -->

<svg
   width="720"
   height="720"
   viewBox="0 0 190.5 190.50001"
   version="1.1"
   id="svg1262"
   xmlns="http://www.w3.org/2000/svg"
   xmlns:svg="http://www.w3.org/2000/svg">
  <defs
     id="defs1259" />
  <g
     id="layer1">
    <path
       style="opacity:1;fill:#000000;stroke:#000000;stroke-width:0.264583px;stroke-linecap:butt;stroke-linejoin:miter;stroke-opacity:1"
       d="M 31.959921,84.442817 60.989905,67.682349 63.549439,93.121717 Z"
       id="path18617" />
    <path
       style="opacity:1;fill:#000000;stroke:#000000;stroke-width:0.264583px;stroke-linecap:butt;stroke-linejoin:miter;stroke-opacity:1"
       d="m 158.54007,119.72926 -31.14567,17.98197 9.57057,-24.98251 z"
       id="path18751" />
    <g
       id="g5002"
       style="fill:#000000;stroke:#000000;opacity:1">
      <g
         id="path4998">
        <path
           style="color:#000000;fill-opacity:0.5;stroke:none;stroke-width:5.29167;stroke-linecap:round;stroke-linejoin:round;-inkscape-stroke:none"
           d="M 95.250003,33.407006 69.679987,48.169931 44.109454,62.932853 v 43.019597 c -2.4e-5,28.24416 22.896394,51.14057 51.140549,51.14055 28.244157,2e-5 51.140577,-22.89639 51.140547,-51.14055 V 62.932853 L 120.82622,48.173029 c 0.0728,0.04374 0.14549,0.08767 0.21807,0.131776 -0.11891,-0.07007 -0.23812,-0.139666 -0.3576,-0.208773 0.0428,0.02355 0.0855,0.04714 0.12816,0.0708 z"
           id="path5042" />
        <path
           style="color:#000000;stroke:none;stroke-linecap:round;stroke-linejoin:round;-inkscape-stroke:none"
           d="M 93.927734,31.115234 68.357422,45.878906 42.787109,60.640625 a 2.6460995,2.6460995 0 0 0 -1.324218,2.292969 v 43.019536 c -2.6e-5,29.67404 24.113067,53.78517 53.787109,53.78515 29.67404,2e-5 53.78714,-24.11111 53.78711,-53.78515 V 62.933594 a 2.6460995,2.6460995 0 0 0 -1.32422,-2.292969 l -25.51562,-14.730469 -0.008,-0.0059 -0.041,-0.02344 a 2.6460995,2.6460995 0 0 0 -0.004,0.002 2.6460995,2.6460995 0 0 0 -0.002,0 2.6460995,2.6460995 0 0 0 -0.004,-0.0078 L 96.572266,31.115234 a 2.6460995,2.6460995 0 0 0 -2.644532,0 z M 95.25,36.462891 119.35938,50.382812 a 2.6460995,2.6460995 0 0 0 0.002,0.0039 c 0.0951,0.05503 0.19041,0.11035 0.28515,0.166015 0.008,0.0046 0.0157,0.0091 0.0234,0.01367 0.0103,0.0061 0.021,0.01152 0.0312,0.01758 a 2.6460995,2.6460995 0 0 0 0.01,0 l 24.0332,13.876953 v 41.492193 c 3e-5,26.81421 -21.67993,48.49415 -48.49414,48.49414 -26.814212,1e-5 -48.494163,-21.67993 -48.494141,-48.49414 V 64.460937 l 24.246094,-14 z"
           id="path5044" />
      </g>
      <g
         id="path5000">
        <path
           style="color:#000000;stroke:none;stroke-linecap:round;stroke-linejoin:round;-inkscape-stroke:none"
           d="M 93.927734,31.115234 68.357422,45.878906 42.787109,60.640625 a 2.6460995,2.6460995 0 0 0 -1.324218,2.292969 v 43.019536 c -2.6e-5,29.67404 24.113067,53.78517 53.787109,53.78515 29.67404,2e-5 53.78714,-24.11111 53.78711,-53.78515 V 62.933594 a 2.6460995,2.6460995 0 0 0 -1.32422,-2.292969 l -25.51562,-14.730469 -0.008,-0.0059 -0.041,-0.02344 a 2.6460995,2.6460995 0 0 0 -0.004,0.002 2.6460995,2.6460995 0 0 0 -0.002,0 2.6460995,2.6460995 0 0 0 -0.004,-0.0078 L 96.572266,31.115234 a 2.6460995,2.6460995 0 0 0 -2.644532,0 z M 95.25,36.462891 119.35938,50.382812 a 2.6460995,2.6460995 0 0 0 0.002,0.0039 c 0.0951,0.05503 0.19041,0.11035 0.28515,0.166015 0.008,0.0046 0.0157,0.0091 0.0234,0.01367 0.0103,0.0061 0.021,0.01152 0.0312,0.01758 a 2.6460995,2.6460995 0 0 0 0.01,0 l 24.0332,13.876953 v 41.49219 c 3e-5,26.81421 -21.67993,48.49415 -48.49414,48.49414 -26.814212,1e-5 -48.494163,-21.67993 -48.494141,-48.49414 V 64.460937 l 24.246094,-14 z"
           id="path5048" />
        <path
           style="color:#000000;stroke:none;stroke-linecap:round;stroke-linejoin:round;-inkscape-stroke:none"
           d="m 95.25,30.261719 c -0.542998,0 -1.086146,0.139482 -1.572266,0.419922 L 68.107422,45.445312 42.537109,60.207031 c -0.973751,0.561534 -1.574518,1.602503 -1.574218,2.726563 v 43.019536 c -2.7e-5,29.94487 24.342253,54.28517 54.287109,54.28515 29.94485,2e-5 54.28714,-24.34028 54.28711,-54.28515 V 62.933594 c 3e-4,-1.124061 -0.60047,-2.16503 -1.57422,-2.726563 l -25.49219,-14.716797 0.0156,0.01172 a 0.50005,0.50005 0 0 0 -0.0488,-0.03125 l -0.041,-0.02344 a 0.50005,0.50005 0 0 0 -0.002,0 0.50005,0.50005 0 0 0 -0.006,-0.0059 L 96.822266,30.681641 C 96.336146,30.401201 95.792998,30.261719 95.25,30.261719 Z m 0,1 c 0.370113,0 0.740079,0.09547 1.072266,0.287109 l 25.566404,14.759766 -0.1875,-0.197266 a 0.50005,0.50005 0 0 0 0.44141,0.271484 h 0.002 a 0.50005,0.50005 0 0 0 0.22266,-0.05273 l -0.23438,0.117188 -0.20312,-0.115235 a 0.50005,0.50005 0 0 0 0.0176,0.01172 l 25.51562,14.730469 c 0.66541,0.383723 1.07442,1.091248 1.07422,1.859375 v 43.019536 c 3e-5,29.40314 -23.88394,53.28517 -53.28711,53.28515 -29.403168,2e-5 -53.287135,-23.88201 -53.287109,-53.28515 V 62.933594 c -2.05e-4,-0.768127 0.408806,-1.475651 1.074218,-1.859375 L 68.607422,46.3125 94.177734,31.548828 C 94.509921,31.357191 94.879887,31.261719 95.25,31.261719 Z M 95,36.029297 70.751953,50.027344 l -24.246094,14 a 0.50005,0.50005 0 0 0 -0.25,0.433593 v 41.492193 c -2.2e-5,27.08369 21.910448,48.99415 48.994141,48.99414 27.08369,1e-5 48.99417,-21.91045 48.99414,-48.99414 V 64.460937 a 0.50005,0.50005 0 0 0 -0.25,-0.433593 l -24.0332,-13.876953 a 0.50005,0.50005 0 0 0 -0.0234,-0.0059 c -0.003,-0.0015 -0.0143,-0.0094 -0.0117,-0.0078 h -0.002 c -0.008,-0.0047 -0.0153,-0.01091 -0.0234,-0.01563 l -0.004,-0.002 c -0.0938,-0.05507 -0.18823,-0.110236 -0.28125,-0.164063 -0.001,-7.2e-4 -0.003,-0.0012 -0.004,-0.002 a 0.50005,0.50005 0 0 0 -0.002,-0.0039 L 95.5,36.029297 a 0.50005,0.50005 0 0 0 -0.5,0 z m 0.25,1.011719 23.73242,13.701171 -0.0664,-0.126953 a 0.50005,0.50005 0 0 0 0.19531,0.205078 c 0.0947,0.05481 0.18804,0.109299 0.28125,0.164063 a 0.50005,0.50005 0 0 0 0.004,0.002 c 0.006,0.0035 0.0118,0.0063 0.0176,0.0098 a 0.50005,0.50005 0 0 0 0.002,0 c 0.0292,0.01729 0.0386,0.02308 0.0293,0.01758 a 0.50005,0.50005 0 0 0 0.0156,0.0039 h 0.002 L 143.24414,64.75 v 41.20313 c 3e-5,26.54467 -21.44946,47.99415 -47.99414,47.99414 -26.544677,1e-5 -47.994162,-21.44947 -47.994141,-47.99414 V 64.75 L 71.251953,50.894531 Z m 26.77539,8.341796 h 0.11719 l 0.0977,0.06055 a 0.50005,0.50005 0 0 0 -0.3164,-0.0098 z"
           id="path5050" />
      </g>
    </g>
    <g
       id="path4936"
       style="opacity:1;fill:#ffffff">
      <path
         style="color:#000000;fill:#ffffff;fill-opacity:0.5;stroke-width:5.29167;stroke-linecap:round;stroke-linejoin:round;-inkscape-stroke:none"
         d="M 95.250003,33.407006 69.679987,48.169931 44.109454,62.932853 v 43.019597 c -2.4e-5,28.24416 22.896394,51.14057 51.140549,51.14055 28.244157,2e-5 51.140577,-22.89639 51.140547,-51.14055 V 62.932853 L 120.82622,48.173029 c 0.0728,0.04374 0.14549,0.08767 0.21807,0.131776 -0.11891,-0.07007 -0.23812,-0.139666 -0.3576,-0.208773 0.0428,0.02355 0.0855,0.04714 0.12816,0.0708 z"
         id="path4976" />
      <path
         style="color:#000000;fill:#ffffff;stroke-width:0.950823;stroke-linecap:round;stroke-linejoin:round;-inkscape-stroke:none"
         d="M 93.99276,34.269196 69.679927,48.30683 45.367093,62.342607 a 2.5159715,2.5159715 0 0 0 -1.259097,2.180207 v 40.903956 c -2.5e-5,28.21475 22.927251,51.14016 51.142004,51.14014 28.21475,2e-5 51.14203,-22.92539 51.142,-51.14014 V 64.522814 a 2.5159715,2.5159715 0 0 0 -1.25909,-2.180207 l -24.26083,-14.006064 -0.008,-0.0056 -0.039,-0.02229 a 2.5159715,2.5159715 0 0 0 -0.004,0.0019 2.5159715,2.5159715 0 0 0 -0.002,0 2.5159715,2.5159715 0 0 0 -0.004,-0.0074 L 96.507241,34.269196 a 2.5159715,2.5159715 0 0 0 -2.514481,0 z m 1.25724,5.084673 22.92375,13.235377 a 2.5159715,2.5159715 0 0 0 0.002,0.0037 c 0.0904,0.05232 0.18104,0.104923 0.27112,0.157851 0.008,0.0044 0.0149,0.0087 0.0222,0.013 0.01,0.0058 0.02,0.01095 0.0297,0.01671 a 2.5159715,2.5159715 0 0 0 0.01,0 l 22.85131,13.194522 v 39.451721 c 3e-5,25.49556 -20.61377,46.10934 -46.109329,46.10933 -25.495562,1e-5 -46.109351,-20.61377 -46.10933,-46.10933 V 65.975047 L 72.194587,52.663529 Z"
         id="path4978" />
    </g>
    <path
       style="fill:#8323dd;fill-opacity:0.5;stroke-width:4.63375;stroke-linecap:round;stroke-linejoin:round;opacity:1"
       d="m 139.98563,94.52996 c 0.006,0.123967 0.0101,0.248197 0.0145,0.372407 -0.005,-0.124135 -0.009,-0.248377 -0.0145,-0.372407 z"
       id="path4317" />
    <path
       style="fill:#8323dd;fill-opacity:0.5;stroke-width:4.63375;stroke-linecap:round;stroke-linejoin:round;opacity:1"
       d="m 139.87159,92.76456 c 0.007,0.06638 0.0125,0.132962 0.0186,0.199485 -0.006,-0.06654 -0.0122,-0.133028 -0.0186,-0.199485 z"
       id="path4315" />
    <path
       style="fill:#8323dd;fill-opacity:0.5;stroke-width:4.63375;stroke-linecap:round;stroke-linejoin:round;opacity:1"
       d="m 50.758284,102.91043 c -0.04866,0.39319 -0.09225,0.78636 -0.130777,1.17941 0.03852,-0.39305 0.08212,-0.78622 0.130777,-1.17941 z"
       id="path4313" />
    <path
       style="fill:#8323dd;fill-opacity:0.5;stroke-width:4.63375;stroke-linecap:round;stroke-linejoin:round;opacity:1"
       d="m 139.68877,91.025912 c 0.0128,0.104234 0.0251,0.208575 0.0371,0.312999 -0.012,-0.104424 -0.0243,-0.208765 -0.0371,-0.312999 z"
       id="path4311" />
    <path
       style="fill:#8323dd;fill-opacity:0.5;stroke-width:4.63375;stroke-linecap:round;stroke-linejoin:round;opacity:1"
       d="m 139.41772,89.203327 c 0.0166,0.09424 0.0329,0.188582 0.0489,0.283008 -0.016,-0.09443 -0.0323,-0.188762 -0.0489,-0.283008 z"
       id="path4309" />
    <path
       style="fill:#8323dd;fill-opacity:0.5;stroke-width:4.63375;stroke-linecap:round;stroke-linejoin:round;opacity:1"
       d="m 51.339766,99.011293 c -0.09196,0.459883 -0.177045,0.920286 -0.255219,1.381047 0.07818,-0.460762 0.163256,-0.921164 0.255219,-1.381047 z"
       id="path4307" />
    <path
       style="fill:#8323dd;fill-opacity:0.5;stroke-width:4.63375;stroke-linecap:round;stroke-linejoin:round;opacity:1"
       d="m 139.1091,87.575526 c 0.0176,0.08643 0.0349,0.172944 0.052,0.25954 -0.0171,-0.0866 -0.0345,-0.1731 -0.052,-0.25954 z"
       id="path4305" />
    <path
       style="fill:#8323dd;fill-opacity:0.5;stroke-width:4.63375;stroke-linecap:round;stroke-linejoin:round;opacity:1"
       d="m 138.68012,85.761491 c 0.028,0.106788 0.0556,0.21373 0.0828,0.320829 -0.0271,-0.107112 -0.0547,-0.214054 -0.0828,-0.320829 z"
       id="path4303" />
    <path
       style="fill:#8323dd;fill-opacity:0.5;stroke-width:4.63375;stroke-linecap:round;stroke-linejoin:round;opacity:1"
       d="m 52.209952,95.265001 c -0.131233,0.476507 -0.255086,0.954158 -0.371514,1.432773 0.116428,-0.478615 0.240281,-0.956266 0.371514,-1.432773 z"
       id="path4301" />
    <path
       style="fill:#8323dd;fill-opacity:0.5;stroke-width:4.63375;stroke-linecap:round;stroke-linejoin:round;opacity:1"
       d="m 138.25566,84.234687 c 0.0117,0.0403 0.0233,0.08062 0.0348,0.120973 -0.0115,-0.04035 -0.0232,-0.08066 -0.0348,-0.120973 z"
       id="path4299" />
    <path
       style="fill:#8323dd;fill-opacity:0.5;stroke-width:4.63375;stroke-linecap:round;stroke-linejoin:round;opacity:1"
       d="m 137.66693,82.443458 c 0.0388,0.110055 0.0771,0.220328 0.11494,0.330817 -0.0378,-0.110494 -0.0761,-0.220767 -0.11494,-0.330817 z"
       id="path4297" />
    <path
       style="fill:#8323dd;fill-opacity:0.5;stroke-width:4.63375;stroke-linecap:round;stroke-linejoin:round;opacity:1"
       d="m 53.358888,91.620764 c -0.160221,0.456373 -0.313642,0.914358 -0.460208,1.373788 0.146566,-0.45943 0.299987,-0.917415 0.460208,-1.373788 z"
       id="path4295" />
    <path
       style="fill:#8323dd;fill-opacity:0.5;stroke-width:4.63375;stroke-linecap:round;stroke-linejoin:round;opacity:1"
       d="m 137.07189,80.864799 c 0.0215,0.05186 0.0429,0.103769 0.0642,0.155737 -0.0213,-0.05196 -0.0427,-0.103881 -0.0642,-0.155737 z"
       id="path4293" />
    <path
       style="fill:#8323dd;fill-opacity:0.5;stroke-width:4.63375;stroke-linecap:round;stroke-linejoin:round;opacity:1"
       d="m 136.38723,79.266186 c 0.0472,0.104743 0.094,0.209724 0.14028,0.314957 -0.0463,-0.10523 -0.0931,-0.210212 -0.14028,-0.314957 z"
       id="path4291" />
    <path
       style="fill:#8323dd;fill-opacity:0.5;stroke-width:4.63375;stroke-linecap:round;stroke-linejoin:round;opacity:1"
       d="m 54.779784,88.069935 c -0.16159,0.377844 -0.318475,0.757202 -0.470615,1.137979 0.15214,-0.380777 0.309025,-0.760135 0.470615,-1.137979 z"
       id="path4289" />
    <path
       style="fill:#8323dd;fill-opacity:0.5;stroke-width:4.63375;stroke-linecap:round;stroke-linejoin:round;opacity:1"
       d="m 135.62383,77.684715 c 0.0402,0.07747 0.0802,0.155113 0.11992,0.2329 -0.0397,-0.0778 -0.0797,-0.155421 -0.11992,-0.2329 z"
       id="path4287" />
    <path
       style="fill:#8323dd;fill-opacity:0.5;stroke-width:20;stroke-linecap:round;stroke-linejoin:round;opacity:1"
       d="m 530.94141,218.80469 c 0.1959,0.37566 0.39056,0.75196 0.58398,1.1289 -0.19342,-0.37694 -0.38808,-0.75324 -0.58398,-1.1289 z"
       transform="scale(0.26458334)"
       id="path4285" />
    <path
       style="fill:#8323dd;fill-opacity:0.5;stroke-width:20;stroke-linecap:round;stroke-linejoin:round;opacity:1"
       d="m 526.89258,211.53125 c 0.26617,0.45205 0.53049,0.90517 0.79297,1.35937 -0.26248,-0.4542 -0.5268,-0.90732 -0.79297,-1.35937 z"
       transform="scale(0.26458334)"
       id="path4283" />
    <path
       style="fill:#8323dd;fill-opacity:0.5;stroke-width:20;stroke-linecap:round;stroke-linejoin:round;opacity:1"
       d="m 523.23242,205.49609 c 0.17258,0.27756 0.34446,0.55556 0.51563,0.83399 -0.17117,-0.27843 -0.34305,-0.55643 -0.51563,-0.83399 z"
       transform="scale(0.26458334)"
       id="path4281" />
    <path
       style="fill:#8323dd;fill-opacity:0.5;stroke-width:20;stroke-linecap:round;stroke-linejoin:round;opacity:1"
       d="m 518.5918,198.5332 c 0.30388,0.4356 0.60597,0.87246 0.90625,1.31055 -0.30028,-0.43809 -0.60237,-0.87495 -0.90625,-1.31055 z"
       transform="scale(0.26458334)"
       id="path4279" />
    <path
       style="fill:#8323dd;fill-opacity:0.5;stroke-width:20;stroke-linecap:round;stroke-linejoin:round;opacity:1"
       d="m 204.10156,194.96484 c -1.02237,1.34744 -2.02702,2.70823 -3.01367,4.08204 0.98665,-1.37381 1.9913,-2.7346 3.01367,-4.08204 z"
       transform="scale(0.26458334)"
       id="path4277" />
    <path
       style="fill:#8323dd;fill-opacity:0.5;stroke-width:20;stroke-linecap:round;stroke-linejoin:round;opacity:1"
       d="m 514.39258,192.7207 0.1582,0.20508 z"
       transform="scale(0.26458334)"
       id="path4275" />
    <path
       style="fill:#8323dd;fill-opacity:0.5;stroke-width:20;stroke-linecap:round;stroke-linejoin:round;opacity:1"
       d="m 509.27539,186.23242 c 0.32844,0.40038 0.65526,0.80207 0.98047,1.20508 -0.32521,-0.40301 -0.65203,-0.8047 -0.98047,-1.20508 z"
       transform="scale(0.26458334)"
       id="path4273" />
    <path
       style="fill:#8323dd;fill-opacity:0.5;stroke-width:20;stroke-linecap:round;stroke-linejoin:round;opacity:1"
       d="m 214.53711,181.91797 c -1.32813,1.49528 -2.63298,3.01109 -3.91406,4.54687 1.28108,-1.53578 2.58593,-3.05159 3.91406,-4.54687 z"
       transform="scale(0.26458334)"
       id="path4271" />
    <path
       style="fill:#8323dd;fill-opacity:0.5;stroke-width:20;stroke-linecap:round;stroke-linejoin:round;opacity:1"
       d="m 504.13086,180.23438 c 0.25015,0.27532 0.4995,0.55136 0.74805,0.82812 -0.24855,-0.27676 -0.4979,-0.5528 -0.74805,-0.82812 z"
       transform="scale(0.26458334)"
       id="path4269" />
    <path
       style="fill:#8323dd;fill-opacity:0.5;stroke-width:20;stroke-linecap:round;stroke-linejoin:round;opacity:1"
       d="m 499.08008,174.78711 c 0.29661,0.31086 0.59219,0.62272 0.88672,0.93555 -0.29453,-0.31283 -0.59011,-0.62469 -0.88672,-0.93555 z"
       transform="scale(0.26458334)"
       id="path4267" />
    <path
       style="fill:#8323dd;fill-opacity:0.5;stroke-width:20;stroke-linecap:round;stroke-linejoin:round;opacity:1"
       d="m 225.59375,170.24805 c -1.47151,1.42544 -2.92026,2.87419 -4.3457,4.3457 1.42544,-1.47151 2.87419,-2.92026 4.3457,-4.3457 z"
       transform="scale(0.26458334)"
       id="path4265" />
    <path
       style="fill:#8323dd;fill-opacity:0.5;stroke-width:20;stroke-linecap:round;stroke-linejoin:round;opacity:1"
       d="m 493.27734,169.0332 c 0.31283,0.29453 0.62469,0.59011 0.93555,0.88672 -0.31086,-0.29661 -0.62272,-0.59219 -0.93555,-0.88672 z"
       transform="scale(0.26458334)"
       id="path4263" />
    <path
       style="fill:#8323dd;fill-opacity:0.5;stroke-width:20;stroke-linecap:round;stroke-linejoin:round;opacity:1"
       d="m 487.9375,164.12109 c 0.27676,0.24855 0.5528,0.4979 0.82812,0.74805 -0.27532,-0.25015 -0.55136,-0.4995 -0.82812,-0.74805 z"
       transform="scale(0.26458334)"
       id="path4261" />
    <path
       style="fill:#8323dd;fill-opacity:0.5;stroke-width:20;stroke-linecap:round;stroke-linejoin:round;opacity:1"
       d="m 237.46289,159.625 c -1.53511,1.28046 -3.05027,2.58465 -4.54492,3.91211 1.49465,-1.32746 3.00981,-2.63165 4.54492,-3.91211 z"
       transform="scale(0.26458334)"
       id="path4259" />
    <path
       style="fill:#8323dd;fill-opacity:0.5;stroke-width:20;stroke-linecap:round;stroke-linejoin:round;opacity:1"
       d="m 481.5625,158.74414 c 0.40301,0.32521 0.8047,0.65203 1.20508,0.98047 -0.40038,-0.32844 -0.80207,-0.65526 -1.20508,-0.98047 z"
       transform="scale(0.26458334)"
       id="path4257" />
    <path
       style="fill:#8323dd;fill-opacity:0.5;stroke-width:20;stroke-linecap:round;stroke-linejoin:round;opacity:1"
       d="m 476.07422,154.44922 0.20508,0.1582 z"
       transform="scale(0.26458334)"
       id="path4255" />
    <path
       style="fill:#8323dd;fill-opacity:0.5;stroke-width:20;stroke-linecap:round;stroke-linejoin:round;opacity:1"
       d="m 250.03516,150.09766 c -1.35654,0.97408 -2.70041,1.9657 -4.03125,2.97461 1.33084,-1.00891 2.67471,-2.00053 4.03125,-2.97461 z"
       transform="scale(0.26458334)"
       id="path4253" />
    <path
       style="fill:#8323dd;fill-opacity:0.5;stroke-width:20;stroke-linecap:round;stroke-linejoin:round;opacity:1"
       d="m 469.15625,149.50195 c 0.43809,0.30028 0.87495,0.60237 1.31055,0.90625 -0.4356,-0.30388 -0.87246,-0.60597 -1.31055,-0.90625 z"
       transform="scale(0.26458334)"
       id="path4251" />
    <path
       style="fill:#8323dd;fill-opacity:0.5;stroke-width:20;stroke-linecap:round;stroke-linejoin:round;opacity:1"
       d="m 462.66797,145.25 c 0.27909,0.17182 0.55773,0.34434 0.83594,0.51758 -0.27821,-0.17324 -0.55685,-0.34576 -0.83594,-0.51758 z"
       transform="scale(0.26458334)"
       id="path4249" />
    <path
       style="fill:#8323dd;fill-opacity:0.5;stroke-width:20;stroke-linecap:round;stroke-linejoin:round;opacity:1"
       d="m 449.06641,137.47461 c 0.37629,0.19278 0.75194,0.38679 1.12695,0.58203 -0.37501,-0.19524 -0.75066,-0.38925 -1.12695,-0.58203 z"
       transform="scale(0.26458334)"
       id="path4247" />
    <path
       style="fill:#8323dd;fill-opacity:0.5;stroke-width:20;stroke-linecap:round;stroke-linejoin:round;opacity:1"
       d="m 442.52148,134.22266 c 0.3573,0.17143 0.71408,0.34395 1.07032,0.51757 -0.35624,-0.17362 -0.71302,-0.34614 -1.07032,-0.51757 z"
       transform="scale(0.26458334)"
       id="path4245" />
    <path
       style="fill:#8323dd;fill-opacity:0.5;stroke-width:20;stroke-linecap:round;stroke-linejoin:round;opacity:1"
       d="m 284.06445,131.39453 c -1.53985,0.64809 -3.07122,1.31612 -4.59375,2.00391 1.52253,-0.68779 3.0539,-1.35582 4.59375,-2.00391 z"
       transform="scale(0.26458334)"
       id="path4243" />
    <path
       style="fill:#8323dd;fill-opacity:0.5;stroke-width:20;stroke-linecap:round;stroke-linejoin:round;opacity:1"
       d="m 434.91602,130.83984 c 0.47932,0.19989 0.95784,0.40172 1.43554,0.60547 -0.4777,-0.20375 -0.95622,-0.40558 -1.43554,-0.60547 z"
       transform="scale(0.26458334)"
       id="path4241" />
    <path
       style="fill:#8323dd;fill-opacity:0.5;stroke-width:20;stroke-linecap:round;stroke-linejoin:round;opacity:1"
       d="m 428.37109,128.21289 c 0.23651,0.092 0.47284,0.18443 0.70899,0.27734 -0.23615,-0.0929 -0.47248,-0.18536 -0.70899,-0.27734 z"
       transform="scale(0.26458334)"
       id="path4239" />
    <path
       style="fill:#8323dd;fill-opacity:0.5;stroke-width:20;stroke-linecap:round;stroke-linejoin:round;opacity:1"
       d="m 420.42773,125.41602 c 0.51504,0.16971 1.02937,0.34158 1.54297,0.51562 -0.5136,-0.17404 -1.02793,-0.34591 -1.54297,-0.51562 z"
       transform="scale(0.26458334)"
       id="path4237" />
    <path
       style="fill:#8323dd;fill-opacity:0.5;stroke-width:20;stroke-linecap:round;stroke-linejoin:round;opacity:1"
       d="m 301.38477,124.875 c -1.27021,0.43018 -2.5359,0.87356 -3.79688,1.33008 1.26098,-0.45652 2.52667,-0.8999 3.79688,-1.33008 z"
       transform="scale(0.26458334)"
       id="path4235" />
    <path
       style="fill:#8323dd;fill-opacity:0.5;stroke-width:20;stroke-linecap:round;stroke-linejoin:round;opacity:1"
       d="m 413.35156,123.23044 c 0.18041,0.0499 0.36075,0.1 0.54102,0.15039 -0.18027,-0.0504 -0.36061,-0.10052 -0.54102,-0.15039 z"
       transform="scale(0.26458334)"
       id="path4233" />
    <path
       style="fill:#8323dd;fill-opacity:0.5;stroke-width:20;stroke-linecap:round;stroke-linejoin:round;opacity:1"
       d="m 405.64258,121.19138 c 0.47702,0.11732 0.95358,0.23646 1.42969,0.35742 -0.47611,-0.12096 -0.95267,-0.2401 -1.42969,-0.35742 z"
       transform="scale(0.26458334)"
       id="path4231" />
    <path
       style="fill:#8323dd;fill-opacity:0.5;stroke-width:20;stroke-linecap:round;stroke-linejoin:round;opacity:1"
       d="m 322.62695,119.49216 c -1.30719,0.23329 -2.61195,0.48005 -3.91406,0.74023 1.30211,-0.26018 2.60687,-0.50694 3.91406,-0.74023 z"
       transform="scale(0.26458334)"
       id="path4229" />
    <path
       style="fill:#8323dd;fill-opacity:0.5;stroke-width:20;stroke-linecap:round;stroke-linejoin:round;opacity:1"
       d="m 397.86133,119.47266 c 0.38304,0.0737 0.76585,0.14858 1.14844,0.22461 -0.38259,-0.076 -0.7654,-0.1509 -1.14844,-0.22461 z"
       transform="scale(0.26458334)"
       id="path4227" />
    <path
       style="fill:#8323dd;fill-opacity:0.5;stroke-width:20;stroke-linecap:round;stroke-linejoin:round;opacity:1"
       d="m 390.56836,118.1543 c 0.41625,0.0689 0.83226,0.13926 1.24805,0.21093 -0.41579,-0.0717 -0.8318,-0.14198 -1.24805,-0.21093 z"
       transform="scale(0.26458334)"
       id="path4225" />
    <path
       style="fill:#8323dd;fill-opacity:0.5;stroke-width:20;stroke-linecap:round;stroke-linejoin:round;opacity:1"
       d="m 382.43164,117.03516 c 0.45722,0.0517 0.91425,0.10513 1.37109,0.16015 -0.45684,-0.055 -0.91387,-0.1084 -1.37109,-0.16015 z"
       transform="scale(0.26458334)"
       id="path4223" />
    <path
       style="fill:#8323dd;fill-opacity:0.5;stroke-width:20;stroke-linecap:round;stroke-linejoin:round;opacity:1"
       d="m 341.96875,116.6582 c -1.67687,0.16625 -3.35149,0.35442 -5.02344,0.56446 1.67195,-0.21004 3.34657,-0.39821 5.02344,-0.56446 z"
       transform="scale(0.26458334)"
       id="path4221" />
    <path
       style="fill:#8323dd;fill-opacity:0.5;stroke-width:20;stroke-linecap:round;stroke-linejoin:round;opacity:1"
       d="m 375.32812,116.32617 c 0.29043,0.026 0.58079,0.0527 0.8711,0.0801 -0.29031,-0.0273 -0.58067,-0.054 -0.8711,-0.0801 z"
       transform="scale(0.26458334)"
       id="path4219" />
    <path
       style="fill:#8323dd;fill-opacity:0.5;stroke-width:20;stroke-linecap:round;stroke-linejoin:round;opacity:1"
       d="m 366.90234,115.85156 c 0.5385,0.0186 1.07692,0.0394 1.61524,0.0625 -0.53832,-0.0231 -1.07674,-0.0439 -1.61524,-0.0625 z"
       transform="scale(0.26458334)"
       id="path4217" />
    <path
       style="opacity:1;fill:#000000;fill-opacity:1;stroke-width:5.03144;stroke-linecap:round;stroke-linejoin:round"
       d="M 95.250003,36.448264 70.937451,50.485184 46.624408,64.52211 v 40.90401 c -2.3e-5,26.85519 21.770411,48.62561 48.625595,48.62559 26.855187,2e-5 48.625617,-21.7704 48.625597,-48.62559 V 64.52211 L 119.56845,50.488131 c 0.0692,0.04155 0.13834,0.08339 0.20735,0.1253 -0.11307,-0.06665 -0.22641,-0.132802 -0.34002,-0.198504 0.0407,0.02244 0.0813,0.04478 0.12186,0.06732 z"
       id="path3737" />
    <g
       id="rect16600"
       transform="matrix(0.87566976,-0.11012107,0,0.87566976,11.842455,29.210653)"
       style="opacity:1;fill:#000000">
      <path
         style="color:#000000;fill:#000000;fill-opacity:0.5;stroke-width:4.41184;stroke-linecap:round;stroke-linejoin:round;-inkscape-stroke:none"
         d="M 22.973806,68.130211 H 167.52619 V 122.36979 H 22.973806 Z"
         id="path16640" />
      <path
         style="color:#000000;fill:#000000;stroke-linecap:round;stroke-linejoin:round;-inkscape-stroke:none"
         d="m 22.974609,65.923828 a 2.2061406,2.2061406 0 0 0 -2.207031,2.207031 v 54.238281 a 2.2061406,2.2061406 0 0 0 2.207031,2.20703 H 167.52539 a 2.2061406,2.2061406 0 0 0 2.20703,-2.20703 V 68.130859 a 2.2061406,2.2061406 0 0 0 -2.20703,-2.207031 z m 2.205078,4.412109 H 165.32031 V 120.16406 H 25.179687 Z"
         id="path16642" />
    </g>
    <rect
       style="fill:#ffffff;fill-opacity:1;stroke:none;stroke-width:3.8785;stroke-linecap:round;stroke-linejoin:round;stroke-miterlimit:4;stroke-dasharray:none;opacity:1"
       id="rect16474"
       width="127.57713"
       height="47.49596"
       x="32.211651"
       y="90.359482"
       transform="matrix(0.99218524,-0.12477363,0,1,0,0)" />
    <text
       xml:space="preserve"
       style="font-style:normal;font-weight:normal;font-size:18.7168px;line-height:1.25;font-family:sans-serif;fill:#000000;fill-opacity:1;stroke:none;stroke-width:0.467919;opacity:1"
       x="35.49155"
       y="130.18489"
       id="text6414"
       transform="skewY(-7.1676834)"><tspan
         id="tspan6412"
         style="font-style:normal;font-variant:normal;font-weight:bold;font-stretch:normal;font-size:44.9203px;font-family:'Trebuchet MS';-inkscape-font-specification:'Trebuchet MS, Bold';font-variant-ligatures:normal;font-variant-caps:normal;font-variant-numeric:normal;font-variant-east-asian:normal;stroke-width:0.467919"
         x="35.49155"
         y="130.18489">DYNO</tspan></text>
    <g
       aria-label="FOR DEVELOPERS"
       id="text20546"
       style="font-size:7.2877px;line-height:1.25;letter-spacing:0.661458px;word-spacing:0px;fill:#ffffff;stroke-width:0.182193;opacity:1;fill-opacity:1">
      <path
         d="m 69.205024,136.85284 -0.771859,0.9455 1.419628,1.15891 -0.49732,0.6092 -1.419628,-1.15891 -1.507713,1.84689 -0.716705,-0.58508 3.296715,-4.03836 2.66008,2.17156 -0.519824,0.63676 z"
         style="font-weight:bold;font-size:7.2877px;font-family:'Trebuchet MS';-inkscape-font-specification:'Trebuchet MS, Bold';fill:#ffffff;fill-opacity:1"
         id="path25222" />
      <path
         d="m 70.777909,140.34736 q 0.596962,-0.9403 1.522636,-1.26307 0.930585,-0.32386 1.792782,0.22352 0.949317,0.60268 1.077197,1.51 0.12788,0.90733 -0.547278,1.9708 -0.675158,1.06348 -1.597591,1.35458 -0.919429,0.29301 -1.883767,-0.31921 -0.88623,-0.56263 -0.968,-1.48283 -0.07877,-0.91829 0.604021,-1.99379 z m 0.811126,0.51495 q -0.490158,0.77208 -0.497714,1.36159 -0.0076,0.58952 0.491136,0.90612 0.585813,0.37191 1.155436,0.15187 0.572627,-0.21813 1.074227,-1.00823 0.982222,-1.54714 -0.159363,-2.27189 -0.522725,-0.33186 -1.069125,-0.0887 -0.544492,0.24021 -0.994597,0.94919 z"
         style="font-weight:bold;font-size:7.2877px;font-family:'Trebuchet MS';-inkscape-font-specification:'Trebuchet MS, Bold';fill:#ffffff;fill-opacity:1"
         id="path25224" />
      <path
         d="m 77.173717,146.97371 -0.333462,-2.54155 q -0.188129,-0.0933 -0.519707,-0.27433 l -0.93409,1.96727 -0.867914,-0.4121 2.236016,-4.70924 q 0.07072,0.0336 0.553934,0.23544 0.484741,0.19865 0.774045,0.33602 1.793689,0.85167 1.134332,2.24033 -0.198418,0.41789 -0.609248,0.64431 -0.410829,0.22643 -0.854082,0.18929 l 0.384525,2.78245 z m 0.103815,-4.83137 -0.6212,1.3083 q 0.222285,0.12918 0.344436,0.18718 0.523963,0.24878 0.83526,0.21539 0.314511,-0.0319 0.517507,-0.4594 0.16484,-0.34717 -0.0299,-0.60902 -0.194743,-0.26185 -0.754066,-0.52743 -0.135009,-0.0641 -0.292033,-0.11502 z"
         style="font-weight:bold;font-size:7.2877px;font-family:'Trebuchet MS';-inkscape-font-specification:'Trebuchet MS, Bold';fill:#ffffff;fill-opacity:1"
         id="path25226" />
      <path
         d="m 82.996493,149.05728 -1.117132,-0.29916 1.347607,-5.03226 q 1.079134,0.24847 1.354121,0.32211 1.099945,0.29456 1.569673,1.11291 0.474085,0.81583 0.188731,1.8814 -0.727192,2.71549 -3.343,2.015 z m 0.915228,-4.31181 -0.920496,3.43733 q 0.211028,0.0786 0.461953,0.14581 0.677154,0.18134 1.190329,-0.20803 0.516612,-0.38844 0.753179,-1.27183 0.432633,-1.61555 -1.06948,-2.0178 -0.144368,-0.0387 -0.415485,-0.0855 z"
         style="font-weight:bold;font-size:7.2877px;font-family:'Trebuchet MS';-inkscape-font-specification:'Trebuchet MS, Bold';fill:#ffffff;fill-opacity:1"
         id="path25228" />
      <path
         d="m 88.63386,145.82419 -0.180269,1.20716 1.7034,0.25437 -0.116149,0.7778 -1.7034,-0.25438 -0.230723,1.54503 2.336896,0.34897 -0.121405,0.81299 -3.251946,-0.48562 0.769951,-5.15595 3.29066,0.4914 -0.121406,0.81299 z"
         style="font-weight:bold;font-size:7.2877px;font-family:'Trebuchet MS';-inkscape-font-specification:'Trebuchet MS, Bold';fill:#ffffff;fill-opacity:1"
         id="path25230" />
      <path
         d="m 93.776622,150.79876 -0.508509,-0.0188 -1.753048,-5.35287 1.017018,0.0377 1.075057,3.56511 1.40348,-3.47328 0.995682,0.0369 z"
         style="font-weight:bold;font-size:7.2877px;font-family:'Trebuchet MS';-inkscape-font-specification:'Trebuchet MS, Bold';fill:#ffffff;fill-opacity:1"
         id="path25232" />
      <path
         d="m 97.627072,146.29379 0.09013,1.21721 1.717587,-0.12718 0.05807,0.78427 -1.717587,0.12718 0.115355,1.55789 2.356363,-0.17447 0.0607,0.81975 -3.279025,0.2428 -0.384952,-5.19889 3.318065,-0.24569 0.0607,0.81976 z"
         style="font-weight:bold;font-size:7.2877px;font-family:'Trebuchet MS';-inkscape-font-specification:'Trebuchet MS, Bold';fill:#ffffff;fill-opacity:1"
         id="path25234" />
      <path
         d="m 101.81508,150.29239 -0.92989,-5.12952 0.91036,-0.16503 0.78326,4.3207 2.31792,-0.42019 0.14662,0.80882 z"
         style="font-weight:bold;font-size:7.2877px;font-family:'Trebuchet MS';-inkscape-font-specification:'Trebuchet MS, Bold';fill:#ffffff;fill-opacity:1"
         id="path25236" />
      <path
         d="m 105.40757,146.92479 q -0.3249,-1.06535 0.0329,-1.97805 0.36019,-0.91714 1.33704,-1.21505 1.07557,-0.32801 1.84743,0.16577 0.77187,0.49377 1.13933,1.69868 0.36745,1.2049 -0.0123,2.09452 -0.37633,0.88858 -1.46891,1.22178 -1.00409,0.30622 -1.7557,-0.23094 -0.74821,-0.53819 -1.11982,-1.75671 z m 0.91899,-0.28026 q 0.26677,0.87475 0.70925,1.26436 0.44248,0.38961 1.0075,0.2173 0.66371,-0.20241 0.86764,-0.778 0.20734,-0.57662 -0.0657,-1.47179 -0.53458,-1.7529 -1.82798,-1.35845 -0.59224,0.18061 -0.76346,0.75366 -0.17226,0.56965 0.0727,1.37292 z"
         style="font-weight:bold;font-size:7.2877px;font-family:'Trebuchet MS';-inkscape-font-specification:'Trebuchet MS, Bold';fill:#ffffff;fill-opacity:1"
         id="path25238" />
      <path
         d="m 111.98548,145.44898 0.77514,1.75439 -0.84628,0.37391 -2.10539,-4.76517 q 0.83046,-0.40972 0.97367,-0.47299 1.12945,-0.49903 1.80412,-0.38085 0.67648,0.11348 1.00149,0.84909 0.72481,1.64047 -1.20861,2.49471 -0.14321,0.0633 -0.39414,0.14691 z m -1.00668,-2.27843 0.67447,1.52655 q 0.2249,-0.0721 0.34858,-0.12678 0.57937,-0.25598 0.76143,-0.56595 0.18061,-0.31322 -0.0121,-0.74937 -0.32789,-0.74212 -1.52244,-0.21433 -0.13345,0.059 -0.24995,0.12988 z"
         style="font-weight:bold;font-size:7.2877px;font-family:'Trebuchet MS';-inkscape-font-specification:'Trebuchet MS, Bold';fill:#ffffff;fill-opacity:1"
         id="path25240" />
      <path
         d="m 114.98899,141.22904 0.61235,1.05582 1.48985,-0.86406 0.39455,0.68028 -1.48986,0.86407 0.78373,1.35133 2.04393,-1.18541 0.4124,0.71107 -2.84427,1.64958 -2.61541,-4.50958 2.87813,-1.66922 0.4124,0.71106 z"
         style="font-weight:bold;font-size:7.2877px;font-family:'Trebuchet MS';-inkscape-font-specification:'Trebuchet MS, Bold';fill:#ffffff;fill-opacity:1"
         id="path25242" />
      <path
         d="m 122.86869,141.25527 -2.39904,-0.90294 q -0.17088,0.12202 -0.48679,0.32923 l 1.29542,1.75059 -0.77232,0.57151 -3.10096,-4.19055 q 0.0629,-0.0466 0.4686,-0.37774 0.40355,-0.33404 0.66099,-0.52454 1.59613,-1.18112 2.51054,0.0546 0.27517,0.37186 0.2814,0.84091 0.006,0.46905 -0.2353,0.84257 l 2.63559,0.97136 z m -4.213,-2.36721 0.8615,1.16421 q 0.21865,-0.13524 0.32735,-0.21568 0.46625,-0.34502 0.58342,-0.63535 0.12002,-0.29245 -0.1615,-0.67289 -0.2286,-0.30893 -0.55132,-0.26048 -0.32271,0.0485 -0.82043,0.41676 -0.12014,0.0889 -0.23902,0.20343 z"
         style="font-weight:bold;font-size:7.2877px;font-family:'Trebuchet MS';-inkscape-font-specification:'Trebuchet MS, Bold';fill:#ffffff;fill-opacity:1"
         id="path25244" />
      <path
         d="m 124.17,139.82976 -0.30951,-0.84163 q 0.66354,-0.0878 1.05393,-0.44661 0.6,-0.5514 0.21474,-0.97061 -0.18059,-0.1965 -0.4858,-0.24465 -0.30522,-0.0481 -0.95027,0.13871 -0.64484,0.18181 -0.92945,0.18239 -0.2844,-0.004 -0.54883,-0.1239 -0.26181,-0.12187 -0.48093,-0.36029 -0.40933,-0.44541 -0.35412,-1.03744 0.0578,-0.59443 0.56874,-1.06396 0.6655,-0.61159 1.20603,-0.64922 l 0.33238,0.77711 q -0.59492,0.0731 -0.99317,0.43911 -0.23581,0.2167 -0.25124,0.46286 -0.0152,0.24113 0.16779,0.44025 0.30339,0.33013 1.36185,0.0147 0.55852,-0.16531 0.8757,-0.16199 0.31478,6.9e-4 0.5989,0.13105 0.28171,0.12774 0.52009,0.38713 0.4286,0.46637 0.33607,1.10718 -0.0899,0.63841 -0.70824,1.20667 -0.53712,0.49361 -1.22466,0.61317 z"
         style="font-weight:bold;font-size:7.2877px;font-family:'Trebuchet MS';-inkscape-font-specification:'Trebuchet MS, Bold';fill:#ffffff;fill-opacity:1"
         id="path25246" />
    </g>
    <text
       xml:space="preserve"
       style="font-style:normal;font-weight:normal;font-size:10.5833px;line-height:1.25;font-family:sans-serif;fill:#000000;fill-opacity:1;stroke:none;stroke-width:0.264583"
       x="94.40934"
       y="74.893196"
       id="text24454"><tspan
         id="tspan24452"
         style="stroke-width:0.264583" /></text>
    <path
       id="path28942"
       style="fill:#ffffff;stroke-width:0.331883"
       d="m 105.85388,42.157517 -0.82107,6.480571 c -2.51234,5.40099 -2.99862,7.851029 -1.90208,9.5763 0.70762,1.11337 0.9868,1.788139 0.89738,-0.137104 -0.10174,-2.190344 2.09648,-2.130036 3.5901,-1.404813 2.0518,0.996256 0.941,4.09415 -1.05704,4.559085 l -0.87076,0.203112 0.11593,1.428258 c 0.10733,1.322223 0.0209,1.560798 -1.15859,3.19757 -2.12358,2.946861 -3.97114,4.478232 -5.442628,4.510613 -2.250282,0.08074 -3.993654,-0.424739 -5.06865,-0.199599 -0.228712,-0.111048 -1.087686,0.05354 -1.908767,0.365078 -0.942418,0.357568 -1.750025,0.428719 -2.190682,0.193729 -0.599103,-0.319462 -0.547455,-0.34597 0.365786,-0.189377 0.585237,0.100363 1.355204,0.04987 1.711228,-0.111713 0.580187,-0.263317 0.55862,-0.30689 -0.208416,-0.424394 -1.534758,-0.235125 -2.929127,-0.100947 -2.890441,0.278684 0.02082,0.204378 -0.291038,0.21169 -0.69344,0.01631 -0.509962,-0.247612 -0.881196,-0.176231 -1.226386,0.235354 -0.272394,0.324762 -2.053658,1.10024 -3.957752,1.722949 -2.248937,0.735488 -3.670387,1.407036 -4.057423,1.916721 -0.491829,0.647661 -0.949275,0.763326 -2.619527,0.664506 -1.644161,-0.09727 -2.128885,-0.246933 -2.587093,-0.800695 -0.310158,-0.374844 -0.513097,-0.785575 -0.451299,-0.912106 0.06179,-0.126532 0.872616,-0.314977 1.801718,-0.418914 0.929095,-0.10393 2.065212,-0.340444 2.525197,-0.525887 0.459995,-0.185431 0.984611,-0.267894 1.165543,-0.182929 0.317751,0.148697 6.1985,-3.195673 6.419445,-3.650716 0.378818,-0.780183 2.755062,-2.279521 3.740863,-2.360094 1.065942,-0.0871 1.13821,-0.149604 0.834372,-0.722815 -0.182923,-0.345111 -0.765808,-0.83848 -1.295453,-1.095649 -0.529638,-0.257165 -0.939736,-0.643207 -0.911581,-0.858027 0.03103,-0.236805 -0.643208,-0.293113 -1.713071,-0.143459 -0.970507,0.135758 -2.241386,0.289961 -2.823753,0.342735 -0.582354,0.05278 -1.091322,0.201973 -1.131223,0.330922 -0.427994,1.384339 -1.584645,1.289935 -3.0956,-0.252172 -1.599754,-1.632728 -1.424788,-2.59562 0.317669,-1.749571 1.47486,0.716116 2.349451,0.639027 6.651836,-0.584358 3.644826,-1.036407 3.884397,-0.995203 7.310823,1.238921 1.660156,1.082455 1.763477,1.105685 2.610239,0.599573 1.029653,-0.615441 1.412519,-0.524198 1.249069,0.297254 -0.0721,0.362221 0.0502,0.27973 0.316771,-0.215034 0.238303,-0.442313 0.326938,-0.855566 0.197294,-0.918514 -0.129646,-0.06296 0.418423,-1.140606 1.218523,-2.394467 1.195759,-1.873939 1.502219,-2.601233 1.721249,-4.083989 0.14656,-0.992133 0.67222,-2.854998 1.16712,-4.139751 0.83382,-2.164578 1.48188,-2.65043 2.29021,-2.78004 0.78365,-0.125657 0.28352,0.319398 0.64676,-0.20896 l 0.84968,-6.784976 z m -5.30871,15.64625 -1.426934,2.90428 c -1.778382,3.620748 -1.68249,3.929413 0.416615,1.346067 0.996109,-1.225898 1.101639,-1.507161 1.058209,-2.806686 z m -5.258233,12.763072 c -63.524625,-47.044559 -31.762312,-23.52228 0,0 z" />
  </g>
</svg>
