<?xml version="1.0" encoding="UTF-8"?>
<svg id="Layer_1" data-name="Layer 1" xmlns="http://www.w3.org/2000/svg" width="400" height="400" viewBox="0 0 400 400"><defs><style>.cls-1{fill:#010101;}</style></defs><title>Flavor Icons</title><path class="cls-1" d="M136.68325,228.10406l-.40808.32021c.06386.34655.13467.76772.58326.78764a.63369.63369,0,0,0,.68518-.5486c0-.55027-.5636-.422-.86036-.55925Zm-22.79669,5.99738-.29361-.47929-.421.13084a2.31667,2.31667,0,0,0-.58,1.03158l.24272.29334a1.16407,1.16407,0,0,0,1.05191-.97647ZM92.78043,202.92059l-.28883-.56321a.71068.71068,0,0,0-.95368-.22211l.16208.71751.30862.50508.514.1524.25786-.58967Zm24.16308,52.41946a1.38989,1.38989,0,0,0,.23617,1.05858c.246.26948.51244.57659.9036.276a.57482.57482,0,0,0,.03711-.85545l-.628-.71464-.38677-.22321-.1621.45869Zm77.96122-62.54972c.49923-.02265,1.04427-.47534,1.0148-.83934a.96005.96005,0,0,0-.99475-.68682.77538.77538,0,0,0-.75871.77727.6831.6831,0,0,0,.73866.74889Zm-80.226,56.96121a.538.538,0,0,0,.45514-.78925,2.363,2.363,0,0,0-1.46994-1.33776l-.54218.32023c-.112.51559,1.00319,1.7933,1.557,1.80678Zm49.57508-43.36006-.34422-.30275a6.73719,6.73719,0,0,0-2.367.78245l-.201.51545.54478.35323a5.52438,5.52438,0,0,0,2.24912-1.06419l.11829-.28419Zm-28.98945,26.5661a.48453.48453,0,0,0,.41735-.63417,5.39651,5.39651,0,0,0-1.12176-2.11621l-.43412-.10085-.20971.51806a4.85535,4.85535,0,0,0,1.065,2.14434l.28324.18883Zm34.83035-31.45018a1.8818,1.8818,0,0,0,1.35206-.79937l.06385-.67728-.606-.30246a2.56781,2.56781,0,0,0-1.309.56893.63063.63063,0,0,0-.31967.722c.11188.35022.39075.48816.81875.48816Zm-29.3963,15.36224a1.47459,1.47459,0,0,0-1.50706.86513.66105.66105,0,0,0,.28953.7317,1.52715,1.52715,0,0,0,1.65889-.3108c.24327-.21791.48121-.46469.37083-.82215-.12756-.42363-.50917-.451-.81219-.46388Zm-42.9602,17.33468c.78327-.1962,11.04464-3.78524,11.786-4.29482l.29675-.4785-.59676-.28335c-.90975.00409-11.12132,3.78562-11.96053,4.03505-.47888.14475-.637,1.00061.47452,1.02162Zm13.70839,3.99532c-.024.35721.12074.6163.63319.41451.44832-.17941.90647-.33727,1.335-.55665.30684-.158.70429-.33031.58626-.79432a1.02348,1.02348,0,0,0-.94085-.81015c-.9429-.11133-1.61361.57029-1.61361,1.74661Zm26.19431-2.3768c-.401.013-.58993.24231-.4591.6235.20916.60031.4591,1.18753.72189,1.76642a1.69263,1.69263,0,0,0,.73482.76949l.87305-.04461v-.76854a9.17552,9.17552,0,0,1-.84945-1.57677,1.29506,1.29506,0,0,0-1.02121-.76949Zm8.81107,8.75731-.26632-.65747a13.57457,13.57457,0,0,1-1.90789-2.18009l-.47179-.3711-.664.03083.024.65366a27.53327,27.53327,0,0,0,2.64217,2.82815l.43536.1041.20847-.40808Zm-50.7214-17.41967-.04421-.23317c-.44368-.806-.88969-1.61156-1.3477-2.40588-.60562-.42365-1.25792-.73784-1.21344.28269.41871.77481.829,1.55331,1.25,2.32866l.60358.55256a.55879.55879,0,0,0,.75176-.52486Zm58.21508-28.568a10.39262,10.39262,0,0,0-1.92811-4.38612l-.50917-.19919c-.74766,1.21783,1.16747,3.46218,1.90408,4.75271l.37874.24013.15446-.40753Zm35.967-11.49162c.03056-.381-.53932-.72145-1.055-.4554-.75258.38761-1.46722.846-2.1951,1.27673-.30984.1868-.714.34493-.52145.81385a.66639.66639,0,0,0,1.01686.309c.83005-.41665,1.63215-.88273,2.43452-1.341a.71511.71511,0,0,0,.32021-.60319Zm-20.2792,20.44785.61655-.17559c.8264-.31707,1.6484-.63756,2.46537-.97455l.60877-.37779c.26291-.2217.42228-.51629.1921-.84166l-.761-.14626q-1.73382.8403-3.45519,1.7027l-.30686.46538c.05349.28979.303.34013.64029.34777ZM141.092,229.63786c-.0865-.33727-.36673-.377-.65352-.32419a12.8105,12.8105,0,0,0-3.45506,1.42617c-1.03691.51927.54287,1.83231,3.69055-.50251l.418-.59947Zm-35.58291-7.96259a1.383,1.383,0,0,0-1.53967,1.183c-.02.70141.56649,1.19776,1.47663,1.24074a1.2375,1.2375,0,0,0,1.4533-1.23053,1.31361,1.31361,0,0,0-1.39026-1.19323Zm2.10723-40.64259a36.59222,36.59222,0,0,0,3.13867,5.7282l.43454.11747.25595-.485a23.825,23.825,0,0,0-2.7501-5.96232c-.83567-1.0369-1.44715-.67958-1.07906.60167Zm84.54772,8.07665-.25977-.35337-.69759.11718c-1.132.52707-2.19755,1.18086-3.38437,1.6019a.74808.74808,0,0,0-.44125,1.16269c.26291.46852.6467.52937,1.21359.08855a31.89945,31.89945,0,0,1,3.19488-2.18227l.37451-.43468ZM97.1361,232.21046c2.10695-1.00388,11.20208-5.081,12.69863-5.57757,2.31857-1.08193-.66375-2.72664-1.04495-2.66784-1.66382.24585-11.70976,5.08191-13.30522,5.51659-.45747.71983.6924,3.186,1.65154,2.72882Zm60.902-25.55566a7.53232,7.53232,0,0,0-1.257-4.085,2.22461,2.22461,0,0,0-.78327-.73181l-.5632-.007-.04666.55311a13.855,13.855,0,0,1,.70823,2.17408,10.99049,10.99049,0,0,0,1.287,2.306l.516.19824.13889-.40766Zm5.70364-2.19755a11.4713,11.4713,0,0,0,4.24066-1.96193l.14394-.19224c.16264-.27641.07108-.47822-.23166-.50876l-.8369.04366a15.69469,15.69469,0,0,0-3.51605,1.21658l-.50112.3299a.62807.62807,0,0,0-.22935.749c.13111.32007.4108.34763.93048.32376ZM189.963,193.19841c-.96024-.00683-1.28441.46865-.96024,1.25014l.38666.74589a.7064.7064,0,0,0,1.00825.34327,7.57788,7.57788,0,0,0,2.2041-1.43529.82633.82633,0,0,0-.10028-1.3417c-.4183-.31709-.83526-.32362-1.10608.188a.70872.70872,0,0,1-1.09215.33058l-.34026-.0809Zm-74.84343,67.15465-.20479-.68108c-.523-.49282-1.07565-.9579-1.62835-1.42287l-.32007.0075c-.33085.434-.8328.7347-.86254,1.39532a9.73911,9.73911,0,0,0,.309,1.64742c.05485.4961.29116.5972.722.54028a4.6104,4.6104,0,0,0,1.2844-.328,1.1494,1.1494,0,0,0,.70031-1.15861Zm51.79078-52.556-.23631.05444c-1.43324.54615-2.86812,1.09216-4.29782,1.64868l-.38091.424a1.82853,1.82853,0,0,0,.75175,1.32819c.33371.2565.609,0,.86909-.18091.995-.695,1.982-1.39206,2.97018-2.09345l.64382-.71191c.12784-.29238.00314-.46224-.3198-.46907Zm27.46847-5.38929.401-.28681a3.105,3.105,0,0,1,1.04523-.7958,19.8928,19.8928,0,0,1,3.67077-1.8,2.5489,2.5489,0,0,0,1.30445-1.3245c.20576-.36387-.06113-.52541-.38789-.52214l-.5692.18514q-3.12114,1.56763-6.23983,3.15178l-.33113.44243a1.57655,1.57655,0,0,0,1.10662.94988Zm-18.38508,6.206-.39661-.13223c-.36442.17644-.72188.3639-1.06938.56691a22.48387,22.48387,0,0,1-3.42778,1.80994c-.29742.11188-.57357.327-.92052.17082a1.73084,1.73084,0,0,0-1.50637.23c-1.13323.53619-2.25554,1.096-3.3511,1.69889-.331.18282-.97428.31707-.67767.92038.26973.55256.75271.28379,1.16351.10751l.44819-.18746c3.1384-1.31195,6.06382-3.05149,9.114-4.545l.51352-.31939.11024-.32035Zm16.16666-10.52444c2.2157-1.065,4.42334-2.14022,6.64436-3.18847.41448-.19576.42881-.421.22238-.75514a.78967.78967,0,0,0-1.01793-.42827,6.75988,6.75988,0,0,0-2.38051,1.37226,1.98636,1.98636,0,0,1-1.30718.72133,11.55309,11.55309,0,0,0-3.18233,1.42942.5896.5896,0,0,0-.29688.81561c.27382.66743.84207.24135,1.31809.03326Zm-80.6633,44.52635c.01611.755.181.87619.89869.68013.4254-.11763.84316-.26482,1.25724-.41778q1.47657-.54558,2.94085-1.10878c.38406-.1524.82106-.36428.69733-.84344-.135-.51818-.1018-1.149-.64767-1.50255l-.5396.06a5.29381,5.29381,0,0,1-2.18008,1.23486c-.59744.246-1.18657.50113-1.76628.778a1.04254,1.04254,0,0,0-.66048,1.11958Zm73.7237-56.58033.54287-.23587a51.42463,51.42463,0,0,1,5.82043-2.64246l.54656-.25623c.46838-.25636.77822-.60058.52609-1.16938-.29047-.64683-.75544-.42594-1.21768-.22295q-3.31,1.46268-6.62635,2.92272l-.52691.28938-.16385.40848a1.84916,1.84916,0,0,0,1.09884.90631Zm-44.21526,55.11748-.34886.528.33182.63714c1.15954,1.79807,2.33834,3.581,3.36993,5.45793a7.801,7.801,0,0,0,3.156,3.26392l.43468.05962-.05417-.42377c-1.06459-1.71334-2.15457-3.4084-3.21248-5.12434-.89924-1.46571-2.37355-2.53167-3.18929-4.09589l-.48762-.30262Zm43.98537-21.63511.89378-.3708q3.19011-1.56231,6.37394-3.14168c.41081-.20178,1.01357-.34245.69391-1.01753-.33645-.71082-.83894-.24667-1.20936-.05061a22.48017,22.48017,0,0,1-5.19174,1.90749c-.70086.17259-1.39858.3681-2.0929.57-.51572.1524-.53305.55638-.4108.975.14489.498.30561,1.00388.94317,1.12815ZM139.34358,234.5454a3.04518,3.04518,0,0,0,.91275-.40139,29.1487,29.1487,0,0,0,7.6421-3.0268c.39063-.10027.78109-.19919,1.17279-.30711l.506-.43427a1.07163,1.07163,0,0,0-1.41674-1.051l-.55515.23794a66.64,66.64,0,0,1-7.04615,2.92338c-.68134.21488-1.3548.48118-2.04952.68422-.58885.17518-.63006.32034-.26564.80521a1.22149,1.22149,0,0,0,1.09952.56977Zm-41.27-7.35163.33726-.07081a35.21953,35.21953,0,0,0,4.2704-1.62127,2.46489,2.46489,0,0,0,.91356-.76813.95709.95709,0,0,0-.755-1.5642,2.18709,2.18709,0,0,0-.93362.17382c-.96432.41585-1.95552.73277-2.94931,1.05327a4.08973,4.08973,0,0,0-1.699.87564,1.039,1.039,0,0,0-.28665,1.30541,1.11612,1.11612,0,0,0,1.10239.61627ZM182.463,214.9571c.04,1.09571.65762,1.51033,1.60474,1.13268,1.12531-.44464,2.24489-.90947,3.35711-1.38194,1.45289-.614,2.90878-1.21618,4.33793-1.87409.72174-.33329.7613-.81544.19919-1.29433a.72294.72294,0,0,0-.89651-.01,16.90841,16.90841,0,0,1-3.52942,1.27405,17.91156,17.91156,0,0,1-4.45949.98464l-.41408.30575c-.0719.3138-.14626.62692-.19947.86322Zm-88.56558,4.5812c.00615,1.09884.4344,1.36475,1.45575.91015l.32008-.17163a26.00829,26.00829,0,0,1,5.97637-2.57918,19.74582,19.74582,0,0,0,3.11739-1.371.62124.62124,0,0,0,.30725-.7171c-.245-.9137-.0835-1.40418-.96267-1.07756l-3.17921,1.25438a31.09292,31.09292,0,0,1-4.64518,2.03615,17.42816,17.42816,0,0,0-1.85455.87645c-.33713.17164-.61246.40767-.53523.83935Zm79.71972-45.14222a3.27785,3.27785,0,0,0,.78245,2.241c1.142,1.96234,3.00879,1.20663,3.884-.40835.49921-.92134.23125-3.49518-1.19121-4.34052a2.11689,2.11689,0,0,0-3.34265,1.55c-.05512.31762-.08868.64056-.13261.95788Zm-67.041,44.64628c.02074-.87918-.38761-1.24033-1.30472-1.04222-2.40971.52063-5.77254,2.21583-8.00666,3.2399-1.75618,1.18548-2.17435,2.98505.215,2.333,2.26945-.83211,5.62479-2.43385,7.96082-3.05817a1.29307,1.29307,0,0,0,1.13554-1.47254Zm34.68081-49.95847a3.64948,3.64948,0,0,0-.98369-2.53195,8.68969,8.68969,0,0,1-1.20963-1.50323c-1.08943-1.88757-1.79834-2.36564-2.95435-4.2075a3.84846,3.84846,0,0,0-1.2069-1.335c-.27669-.168-.68872-.13057-.671.1921.09973,2.33043,3.39312,8.2521,5.18914,10.13366a1.17052,1.17052,0,0,0,1.315.36046c.52827-.18159.51859-.65788.52145-1.10853Zm37.55849,43.84484a7.34948,7.34948,0,0,0-.30671-1.03485c-.29277-.63783-.61955-.70851-1.23991-.37847-2.09727,1.1159-4.18962,2.245-6.30136,3.33377-.96582.49853-1.96452.93049-2.95872,1.37581a1.14132,1.14132,0,0,1-1.14905.03736c-.24013-.14555-.446-.64381-.78327-.26332l.2363.86188a6.10848,6.10848,0,0,0,.57357,1.06637,1.5701,1.5701,0,0,0,2.28869.54915c3.01058-1.79671,6.17489-3.3099,9.222-5.03607.22009-.12525.45951-.17832.41845-.51163ZM73.40551,210.0763a57.27028,57.27028,0,0,0,.95792,5.85861,15.092,15.092,0,0,0,.99364,3.36463l.23658.2524.22852-.321c.379-2.85912,2.98533-1.9023,1.83164-7.27345-.19674-.89938-.45215-1.79316-.611-2.70673a4.55166,4.55166,0,0,0-.5898-1.70966,3.00072,3.00072,0,0,1-.38789-2.09358,6.59164,6.59164,0,0,0,.10479-2.5269c-.08091-.31449.21529-.7916-.08091-.89392-.34422-.11788-.54915.38474-.81192.61627l-.62091.72908a12.8254,12.8254,0,0,0-1.2507,6.70428ZM133.899,224.01512c.181-.04038.49827-.09714.80838-.18487,2.06249-.58994,3.915-1.936,5.94349-2.61654.52213-.1715,1.18345-.26673,1.07851-1.05218-.07026-.519-.61641-.66023-1.54075-.33044a25.23008,25.23008,0,0,0-4.24692,1.75318,6.903,6.903,0,0,1-1.4424.61641c-.34422.11147-.671.12129-.7883-.28965-.10821-.38734.26494-.42377.50166-.54876.74793-.39782,1.51019-.76879,2.23807-1.20347.38406-.22662.75572-.56388.51244-1.08863-.22266-.48514-.69063-.4996-1.14905-.438a4.26572,4.26572,0,0,0-1.79015.70061c-.30712.1951-.613.3917-.93717.55529l-.74794-.17177c-.22648-.42391.22894-.43114.44137-.52814,1.9371-.89708,3.86275-1.84146,5.84471-2.63974,1.02149-.41135,1.399-1.27443,1.91718-2.06288.21666-.32979-.03315-.62722-.25513-.857l-.73838-.14721c-.50508.74479-1.35521.62364-2.03615.89569-2.35582.95054-4.48283,2.40657-6.94383,3.12133l-.10792.05527c-.55324.21421-.58653.58476-.34805,1.06828a12.053,12.053,0,0,0,1.52439,2.17968,6.76353,6.76353,0,0,1,1.32723,2.66375c.08774.47272.401.55665.93471.54969Zm-50.15943-19.84a88.85,88.85,0,0,0,3.54757,9.53472,75.86881,75.86881,0,0,0,4.16984,7.37633c1.156,1.25915,1.74282.76853.946-.76608a8.6585,8.6585,0,0,1-1.21277-2.36223,24.131,24.131,0,0,0-2.64341-5.43746c-.92708-1.40895-.86241-2.19809-.53646-2.15812.26864.03275.6849.73088,1.16434,1.22546.6108.62828,1.11984,2.0648,1.311,1.13186l-.11393-.34409c-.975-2.08281-1.94608-4.16657-2.93688-6.23915-1.72085-3.63706,1.08138.39757,1.25778.65994.35719.53619.3812,1.33569,1.16625,1.54812a4.09835,4.09835,0,0,0-.26672-1.99265L89.42046,205.9c-.49538-1.15028-.987-2.30233-1.49-3.44838-.44493-1.00225-.29362-1.94692.52391-.58285a12.86607,12.86607,0,0,0,1.17879,1.59478,1.62783,1.62783,0,0,0,.8834.60591l.45433-.05389.03151-.44805a14.57847,14.57847,0,0,0-1.23814-2.22211c-.61054-.946-.12757-2.97648-.46536-4.07912-.2325-.75871-1.9745-.07081-2.69322-.35282l-2.35705-4.64709,1.80434,5.12966c.78738,1.80694-1.26529-1.01875-2.33889-2.83347l-.45474-.2936-.19346.52322a23.25424,23.25424,0,0,0,2.5928,6.76265c2.10873,2.71545-1.2837-.88289-2.21624-1.40582-.49253-.27451-.71369-.23317-.76786.19387a10.74409,10.74409,0,0,1-.30165-6.5449,6.32335,6.32335,0,0,1,2.61191-2.9961,16.16859,16.16859,0,0,1,2.72363-1.01493l.55951-.00314-.249.58721a5.13879,5.13879,0,0,1-1.642.755c-.36769.151-.70482.29607-.35432.77836l.0543.33724c-.45541.92041.16182,1.29765.80157,1.72538a18.308,18.308,0,0,1,3.77908,3.21248,42.877,42.877,0,0,1,3.12531,3.85987c.68995,1.01084.707.99774,1.8.35336l.31748-.18555c.75721-.51558.82475-.7141.49416-1.61115-.62432-1.70571-1.21986-3.42382-1.89725-5.11056-1.77051-4.39865-2.61409-6.49376-1.51605-9.23184,1.00155-1.10839,1.95687-2.293,2.9085-3.38343-.17.26932-.3254.54833-.46893.83115-1.09611,2.158-1.949,5.34221-.68067,7.51577,2.2685,4.01253,5.01833,10.97765,6.89062,15.62406,1.54335,3.81905,3.606,7.50089,5.423,11.20276,1.2642,2.57589,2.50411,5.16077,3.88947,7.67526a3.94219,3.94219,0,0,1-.09441,4.45567,14.5525,14.5525,0,0,0-.88928,1.58824,1.24663,1.24663,0,0,1-1.11643.72842c-2.16032.24285-7.62233,2.71273-9.62409,3.45438-.91344.34314-.46948,1.82481,1.62711,1.304.907-.22564,5.33472-1.96381,6.1873-2.33166,2.63768-1.13934.72992,1.12779.19646,1.18509-1.23473.1322-5.20483,2.65827-6.33,3.093-1.42834.88871-1.12054,1.95783-.12961,1.73613,1.12353-.25309,5.35915-1.224,6.37352-1.95579,1.12613-.42731,1.16011.05539.0146.6175-.91.44491-4.62281,1.9592-5.52312,2.41816a.73361.73361,0,0,0-.44507.8957.77254.77254,0,0,0,.85013.543l.59227-.09127c.82364-.48107,4.63059-1.37021,5.452-1.842.24013-.13425.5261-.13043.55352.20313.06385.72531.34381,1.48265-.4108,2.10029l-.70878.60986c-2.35732.99788.10355.52023,1.71907,4.99855l-.11065.32021-.31461-.097a13.79492,13.79492,0,0,0-3.71184-4.05333c-4.28431-3.15791,2.13861,5.7106,2.41885,6.01921.86226.95272,1.75154,1.56327,1.7832,2.63823l-.15281.42131-.41067-.18227c-3.35424-4.18063-6.05523-8.07719-9.041-12.62715-.80523-1.22668-5.05585-8.36793-5.45424-9.24329q-1.08138-2.36965-2.24121-4.70521c-3.05217-6.18458-6.86782-11.80349-8.50423-18.49028l.24108-4.255ZM99.11235,208.132c-1.18371.62282-2.468,1.00689-3.6851,1.55385l-.451.16782c-.30411.0573-.69786.24285-.82543-.19183-.09891-.34381.27615-.45528.52528-.55611.93348-.38135,1.878-.74534,2.82132-1.10266a11.29642,11.29642,0,0,0,1.837-.934.62523.62523,0,0,0,.2595-.92693c-.19579-.37042-.51163-.33754-.83621-.20193-.33686.13807-.667.29375-.99747.43823-.445.19647-.88342.4108-1.33843.57-.40793.14094-.917.37438-1.14277-.20874-.19537-.50576.27723-.69488.63046-.88341.60741-.32008,1.213-.64384,1.83778-.92994.441-.20029.6572-.44219.42376-.93471-.20765-.444-.4108-.67754-1.01494-.49485a14.646,14.646,0,0,0-3.3159,1.46312,20.42278,20.42278,0,0,0-2.61967,3.235,18.00591,18.00591,0,0,0,.29619,4.34257c.29361,1.213.41067,2.46414.65353,3.69041a5.98145,5.98145,0,0,0,.48557,1.23392c.18978.421,1.26148-.00314,1.6559-.25609a13.63938,13.63938,0,0,1,2.88819-1.24306,39.92067,39.92067,0,0,0,5.13866-2.45732c.71478-.39731.79937-.84234.49935-1.655a1.2419,1.2419,0,0,0-1.51115-.86922,45.65055,45.65055,0,0,0-5.62969,2.54655,10.56562,10.56562,0,0,1-.99748.442c-.277.10792-1.34879.62514-1.53132.31953l.9512-1.25042c.19224-.21161,5.38466-2.5396,7.02133-4.03724.89419-.81833,1.14973-2.52853-2.02837-.86963ZM180.845,152.155l-.17547-.58666c-.65052-.65352-1.03458-1.54078-1.82945-2.06958a3.5415,3.5415,0,0,0-1.67608-.607,9.80215,9.80215,0,0,0-3.83219.26659,15.18252,15.18252,0,0,1-5.8634.47165c-.7991-.06467-1.59451-.1782-2.39279-.27464a17.33183,17.33183,0,0,0-4.38909-1.1616c-.27792-.39443-.57044-.77509-.8497-1.16884a1.32475,1.32475,0,0,0-.99052-.57357,21.47724,21.47724,0,0,0-2.16454.39075c-1.85606.68477-3.73367,1.30568-5.59122,1.98963q-1.58769.5853-3.12831,1.30458c-.46181.215-2.39483,2.73633-5.17741,4.10518-2.19509.726-7.16867,1.21563-11.60143,1.85919-3.29815.47875-8.19125,2.7037-11.87116,5.40471-.14462.10628-1.6982,1.84432-3.481,3.85919-11.18423,12.64392-12.92513,5.39134-18.51239,11.35748-3.08451,3.29353-3.37321,4.96567-7.04575,8.18825-1.77965,1.58359-3.40336,3.34071-5.33186,4.75569-1.723,1.26323-4.45061,2.78654-4.8044,4.9317a1.72118,1.72118,0,0,1-.50153.817c-.86322.99037-.79923,2.68516-.76608,4.00039a6.25992,6.25992,0,0,1-.0734,1.68808,23.84074,23.84074,0,0,0-.45131,5.42766,6.99621,6.99621,0,0,0,.39455,2.49743,16.4055,16.4055,0,0,1,.69829,2.68175l.118,3.19571a20.60715,20.60715,0,0,1-.80018,6.05168c-.21612.60684-.25951,1.26734-.41777,1.89439a2.57671,2.57671,0,0,0,.06058,1.42929,68.65594,68.65594,0,0,0,4.46959,11.775c1.90926,3.66381,3.0609,7.0789,5.31522,11.107a54.12761,54.12761,0,0,0,7.79367,10.71868c3.33732,3.423,7.50512,5.77734,8.39658,5.89685,4.41175.61328,1.68279,2.06507-.43809,1.29081l-.67085-.28378c-5.93407-2.635-11.28449-8.18184-14.55414-13.78972-2.19864-3.76721-7.20851-11.38571-8.50573-15.23725l-.16468-.32037c-.25254-.343-.55924-.317-.707.07547-.143.3771-.21352.78108-.36769,1.15205a9.40629,9.40629,0,0,0-.797,4.11923c.38747,8.9546,4.57478,17.06631,7.68332,25.46671,2.38281,6.47559,7.53021,22.271-2.52924,24.9773-7.22611,1.94394-7.57634,2.90962-13.17861,6.33495-1.33514.81342-4.16889,4.35566-1.49709,5.54824a20.78237,20.78237,0,0,0,6.96061,1.48277c1.25411.101,2.51271.15742,3.77023.21024,3.1867.13466,3.55548.64957-.0015.94577a49.00508,49.00508,0,0,1-9.32707.03451,3.20779,3.20779,0,0,0-1.42546.15772c-1.04509.34695-2.04284,1.01123-3.23282.61109l-.2363.04694a17.14714,17.14714,0,0,0-4.76934,1.70147c-1.19.68094-1.26161,1.58837-.176,2.46823A7.06953,7.06953,0,0,0,62.808,312.042a49.973,49.973,0,0,0,5.99643,1.48634,255.94989,255.94989,0,0,0,35.18849,2.12619,52.48734,52.48734,0,0,1,7.03223.12525,55.57685,55.57685,0,0,0,7.02064.25227q8.79736,0,17.59595-.01037a11.26326,11.26326,0,0,0,1.817-.06c3.7278-.61723,7.50321-.324,11.2553-.58981,3.62765-.25636,7.22679-.82324,10.86741-.92707,2.38243-.06685,4.73877-.50958,7.12324-.65379a26.66281,26.66281,0,0,0,5.28506-.69091c2.06671-.55338,4.11459-1.17756,6.18143-1.72644a8.4425,8.4425,0,0,1,3.35138-.391c2.01241.27587,4.03818.1614,6.05469.24981.80769,0,1.62056-.05405,2.427.00982a14.68738,14.68738,0,0,0,6.6022-1.28753,4.77843,4.77843,0,0,0,2.30328-1.89562c.99092-1.51155.59608-2.55419-1.075-3.177a66.9439,66.9439,0,0,0-10.66971-2.75147,72.5142,72.5142,0,0,0-8.20776-.67344,6.94513,6.94513,0,0,1-2.81846-.611A5.74032,5.74032,0,0,0,173.83,300.179a15.1964,15.1964,0,0,1-2.75364-.39417c-2.10316-.41174-4.19661-.88231-6.3168-1.14617-1.675-.20888-3.36459-.36373-5.05312-.49923-7.34767-.59156-14.20978-.68188-21.55009-.65323a11.63865,11.63865,0,0,0-2.17735.12429,11.32034,11.32034,0,0,1-6.29-.72406,49.86543,49.86543,0,0,0-7.53024-2.28884,34.69607,34.69607,0,0,0-6.70193-.971l-.71149-.13534c-1.29723-.2434-1.3177-.21556-1.93725.99161-.166.31664-.10873.40725.20165.48147l.57644.33725c0,.31627-.37056.41792-.63306.46512-.71191.13166-1.44293.18187-2.15457.32295-.37738.07817-4.161.67466-4.33356,1.12244.90278-.03738,7.789-.64329,3.28233.63456a55.00362,55.00362,0,0,1-5.96464.40562c-.965.20356.41286.88273,2.85912.7538a60.85747,60.85747,0,0,0,6.18976-.84221c.41121-.06849,1.04864-.26264,1.18589.24517.176.63074-.529.705-.9534.82693a25.62223,25.62223,0,0,1-10.15659,1.26338,30.0144,30.0144,0,0,1-6.88365-1.2305c-1.05165-.38734-2.27137-.31694-3.3005-.73879a14.85365,14.85365,0,0,0-7.22857-1.332,17.07437,17.07437,0,0,0-4.27585,1.00936c-1.8491.18678-.28882-.70891.8388-1.025,6.03626-1.69588,9.01231-.75571,15.0146.52936a13.14389,13.14389,0,0,0,9.04084-1.32191,24.96151,24.96151,0,0,1,2.83564-1.32723c1.53612-.56361,1.67719-2.06044.39362-3.1009l-.47916-.37136a15.77665,15.77665,0,0,1-2.591-2.36263c-2.73358-4.07885-4.17421-5.99782-4.30709-9.39433a19.37337,19.37337,0,0,1,3.50377-11.45135c.87673-1.32806,1.64485-2.771,2.4917-4.14338,1.12558-1.82672,1.83054-3.87624,3.034-5.65862a1.78907,1.78907,0,0,0,.313-1.39258c-.31693-1.17634.23248-2.50794-.64738-3.57677l-.01336-.448.40806.26973c.7785,1.53039,2.34655,2.31843,3.3739,3.61713.243.30686.4992.1647.5872-.21213a1.72073,1.72073,0,0,0-.59675-1.6248c-1.12355-1.221-2.20493-2.47356-3.34989-3.67459a2.563,2.563,0,0,1-.51408-2.26115l.23016-.21966.16156.155.3775.74889c1.26038,1.25929,2.4404,2.58789,3.59709,3.94309.215.2565.50508.48885.82215.18323.32294-.31352.04039-.5939-.15539-.84371-.74139-.95763-1.45876-1.93807-2.25158-2.852-.55229-.64-.941-1.50037-1.699-1.87407a1.27552,1.27552,0,0,1-.76881-1.53993c.04107-.31764-.03329-.64438-.02-.96814.07067-1.71907-.59377-3.336-.6774-5.03566-.08391-1.726-.49157-3.47184-.037-5.17154a29.83587,29.83587,0,0,1,3.56639-8.441,15.46614,15.46614,0,0,0,1.7761-3.568,28.11843,28.11843,0,0,0,.99079-11.39378,7.14717,7.14717,0,0,1,.9208-4.43016c.84876-1.42233,1.66586-2.86226,2.47751-4.30464a4.38443,4.38443,0,0,1,.79623-1.0586c4.41325-4.18785,5.97951-6.531,11.76747-8.0353a19.46052,19.46052,0,0,0,4.14283-1.96247,5.20868,5.20868,0,0,0,2.05907-2.1734,22.10132,22.10132,0,0,0,1.26079-2.75489,79.40849,79.40849,0,0,0,3.10825-9.17235,6.8423,6.8423,0,0,1,.52855-1.35083,16.18975,16.18975,0,0,1,3.68536-4.77319c.32294-.297.82489-.53261.87905-.96732.149-1.17031,1.007-1.21765,1.8536-1.2976l.702-.09892c1.81526-1.20976,4.95121-2.9339,6.495-4.19263,3.31795-2.71561,5.68823-5.4174,10.41964-5.10278.35377.02224.45869-1.25642,2.04051-2.54423a29.5694,29.5694,0,0,1,5.26419-3.06254c.61013-.23153.55283-.492.27368-.98056a11.30514,11.30514,0,0,1-1.22463-3.01956c-.06358-.263-.17121-.59065.20315-.72147a.625.625,0,0,1,.89569.35746c.17259.45064.31325.916.47916,1.36828a1.99026,1.99026,0,0,0,1.41578,1.37146l.552-.07436-.09427-.64042a7.496,7.496,0,0,1-1.3312-1.71634l-.24229-.60223.68354-.07108a1.2604,1.2604,0,0,1,.76879.54956q.93034,1.198,1.85442,2.39265c.215.27737.28665.789.69731.74493.421-.04639.61369-.49812.75844-.8755a9.27781,9.27781,0,0,0,.28694-1.0455Zm-13.75532,2.96838c1.5784,2.26034.1004,3.13106-1.54418.7081-4.21364-6.20652-1.2511-4.71256,1.54418-.7081Zm-19.494-1.92492c1.29531,1.79452,3.78347,6.79088,5.19625,8.84327,6.1832,8.95978-11.95,6.10557-12.211,10.22753-.06316,1.08029,2.51653,9.02459-.96377,2.73073q-.54416-.98212-1.12081-1.86069c-1.48468-2.88859-5.29489-11.22432-7.20973-13.47058,2.01241-.68151,4.6951-1.97434,5.83106-.077,1.76587,2.94562,3.11111,4.51707,4.956,7.41576a2.75431,2.75431,0,0,0,2.042,1.34156c1.651.24217,5.70678-1.10512,6.86662-2.29933.53249-.5486,2.01378-1.33719,1.54893-2.01721-2.73727-3.99873-3.799-6.16776-6.044-10.09121.3767-.24081.7433-.49075,1.10853-.74288ZM123.19029,176.0778a121.50168,121.50168,0,0,0,6.18812,13.23072,11.57873,11.57873,0,0,0,2.45091,3.29064c.23276.21218.42118.42406-.04679.60293-.75531.28663-1.50447.5969-2.25554.893-.34436.13535-.53537.04107-.55938-.35418l-.11515-.59226c-.50466-1.73586-1.46544-2.16494-3.1148-1.39887l-.54219.27205a2.17448,2.17448,0,0,1-2.346.23958l-.47453-.31311.26878-.4853a9.67936,9.67936,0,0,1,2.85844-1.79111c.947-.34886,1.11958-.67046,1.089-1.63708-.04394-1.35234-.72365-4.35048-1.97735-4.79867l-.591-.08093a14.31977,14.31977,0,0,0-4.64874,2.40591,14.50487,14.50487,0,0,0-3.155,2.81751c-.85,1.1013-2.49484,2.46359-1.94528,3.86232a33.48164,33.48164,0,0,0,4.42131,8.46125l.12728.206a.726.726,0,0,1,.00682.89378c-.55256.893-.41258,1.02408-.951,1.92386-.15253.25582-.33727.358-.52976.02933l-.23-.42772c-2.47752-5.04807-9.04874-19.11569-11.75042-22.95072l-.05089-.10888c-1.787-3.41577-4.38827-1.27211-6.3259-.8021a4.46089,4.46089,0,0,0-1.41784.61532,9.75286,9.75286,0,0,1,3.00619-1.93109c1.04892-.50276,2.34245-1.086,3.84623-1.7454,2.00845.33262,3.84159,1.66081,5.89437,4.01881.39171.66116.80892,1.308,1.166,1.98853a8.43162,8.43162,0,0,1,1.17581,2.88886,1.03426,1.03426,0,0,0,1.71278.70823c.98438-.64151,1.94174-1.315,2.98314-1.86137,1.08274-.56771,6.13424-2.8976,5.53529-4.38882a15.51827,15.51827,0,0,0-1.41593-2.81083c-3.935-5.93353-2.05483-10.25141,1.71307-.87017ZM136.21787,205.401c.14121-.60729-.495-.81194-.73511-1.24687a1.77241,1.77241,0,0,0-2.59211-.944c-.34314.16192-.72761.19592-.95395-.21229-.19524-.35719.06194-.59745.2801-.84658l.32717-.56579-.66062.0337a9.03719,9.03719,0,0,0-1.46258.58271c-1.40936.79882-2.9302,1.35875-4.366,2.10054l-.66021.30275-.59281-.229.10137-.64654.70687-.46224q1.4917-.81431,2.99119-1.6046a2.54,2.54,0,0,0,1.07046-.76526,3.47066,3.47066,0,0,1,1.69615-1.31114l.52528-.29947c.29047-.21311.44791-.48955.21652-.8272l-.74834-.07029-.30656.19567c-1.02805.49878-1.92224,1.37212-3.22368,1.15655l-.64029.30644a26.2116,26.2116,0,0,0-3.95755,3.37825.68418.68418,0,0,0-.121.95695c.62719,1.11574.8901,2.42321,1.84392,3.37416a2.6775,2.6775,0,0,1,.50507.96036c.38488,1.01862.75953,2.04324,1.10375,3.07482a7.48422,7.48422,0,0,0,1.94378,3.42778l.442.55622c.41149.78889.45829.80212,1.29818.46226,1.72139-.7014,3.468-1.3522,5.13921-2.15457.94808-.45569,1.7334-1.21945,2.71791-1.66845.3134-.14231.47916-.62324.70386-.95368l-.01964-.55665-.54615-.02361a47.18973,47.18973,0,0,0-5.453,1.93887,17.567,17.567,0,0,1-3.00088,1.2874.47771.47771,0,0,1-.65775-.31366c-.151-.3-.151-.53633.17246-.7081l.64057-.3434c2.95857-1.51377,5.46337-2.41489,8.26232-4.28841a1.027,1.027,0,0,0,.40412-1.38167,1.11335,1.11335,0,0,0-1.315-.62051,6.26442,6.26442,0,0,0-1.905.75883c-2.05635,1.12247-4.11542,2.23441-6.17476,3.35385a1.828,1.828,0,0,1-.91357.27983c-3.31972-.06262,5.99439-4.04269,6.516-4.18624a4.73148,4.73148,0,0,0,.90333-.33383.80717.80717,0,0,0,.495-.92394Zm.776,53.17573a6.473,6.473,0,0,0,3.39135-.71928,6.18648,6.18648,0,0,1,1.49587-.48121,38.87344,38.87344,0,0,0,4.58037-1.56818,1.94426,1.94426,0,0,0,.68818-3.1047,15.38892,15.38892,0,0,0-1.13582-1.0852,6.82779,6.82779,0,0,1-2.21759-2.67206,8.31415,8.31415,0,0,0-1.65237-2.7849,24.6676,24.6676,0,0,1-2.2951-3.26965,4.28449,4.28449,0,0,0-1.21031-1.496,5.23738,5.23738,0,0,1-1.38834-1.5076c-.75873-1.14223-1.538-2.278-2.29266-3.42518l-.42772-.85586a6.38884,6.38884,0,0,0-1.04836-2.42717q-1.33086-2.31072-2.70018-4.60111c-3.0272-5.06281-6.12522-10.085-8.70642-15.39731-.17641-.36441-.392-.70823-.58053-1.06555l-.58326-.29661a3.09,3.09,0,0,0-1.74253,2.03c.0401,1.74909-.49172,3.43815-.46893,5.18355.021,1.61116,0,1.61116,1.54089,1.089l.11528-.04379.66389.00668-.31052.69745c-.56948.38377-1.1702.71451-1.75632,1.072a1.35554,1.35554,0,0,0-.77249,1.15014c-.00928.37438.07546.54615.483.38707,1.20663-.45842,2.42035-.90634,3.62958-1.36178.4902-.18484.97086-.40478,1.4743-.55256.33918-.10176.76431-.18484.9564.2467.19538.44123-.16222.66332-.48188.84494a19.28365,19.28365,0,0,1-2.63278,1.22477c-1.1294.44409-2.26808.85189-3.37156,1.36066a1.71732,1.71732,0,0,0-.93949,1.44361c-.07149.364.16495.42129.43768.29347,1.60843-.75284,3.31795-1.27143,4.87494-2.149a11.27561,11.27561,0,0,1,1.76532-.7849c.39812-.14394,1.01494-.40412,1.20049.064.21939.54956-.49839.57357-.83934.79255l-.34095.12143a38.78271,38.78271,0,0,0-4.78367,2.32932c-1.18916.66787-1.351,1.20624-.96213,2.47044.22784.74548.21817.72815.90183.44546,2.20519-.91111,4.57915-1.30159,6.78979-2.19441a7.35166,7.35166,0,0,1,.95354-.146.63246.63246,0,0,1,.85545.446c.13275.43168-.23112.54915-.52077.67453a40.19516,40.19516,0,0,1-5.05708,2.33535,1.80531,1.80531,0,0,0-1.27389.86335c-.40507,1.03145-1.37117,1.14155-2.16781,1.55315-.46481.23933-.7347.07847-.99065-.32374a30.71158,30.71158,0,0,1-1.64567-2.82789c-.1146-.23615-.04434-.66414-.391-.674-.38092-.00694-.27914.41749-.3771.66034l-.33071.77852a1.15177,1.15177,0,0,0-.03084,1.1571,25.77128,25.77128,0,0,0,2.9875,5.25477c1.42246,1.65918,2.64615,3.4683,3.97352,5.20088,3.70173,4.84752,7.17317,9.87062,11.1617,14.4952a2.90393,2.90393,0,0,0,2.29264,1.14319c.404.00327.8081,0,1.21331,0Zm18.85606-79.118a.63592.63592,0,0,1-.82584-.3943c-.182-.35363.00245-.60331.30015-.815a9.87657,9.87657,0,0,1,1.61757-.81875l.334-.43645c-.07079-.32267-.32348-.30261-.57275-.24913-.59376.11829-1.18616.24913-1.78374.35077l-.492-.17259.33372-.27136c4.40233-2.29865,1.92264-4.63591.92053-6.14924-.26291-.523-.62733-.54956-1.1054-.34641-1.04534.43727-2.01636,1.0279-3.0313,1.52261a17.047,17.047,0,0,0-6.02956,5.3264,6.47973,6.47973,0,0,0-.93746,1.95893.70384.70384,0,0,0,.19252.876,3.39442,3.39442,0,0,1,1.11179,1.68142,44.32746,44.32746,0,0,0,4.16686,6.96457,12.77671,12.77671,0,0,1,1.66831,3.08082,9.94541,9.94541,0,0,0,.957,1.80953c1.08261,1.7465,2.45159,3.334,2.896,5.42491l.4752.82554a4.34815,4.34815,0,0,1,1.26053,2.02539,12.83926,12.83926,0,0,0,1.39912,2.68339,1.74,1.74,0,0,0,1.0144.80892c.78831.19238,1.295-.20874.99773-.93021-.30916-.75475.0176-1.10812.5089-1.52752a5.81063,5.81063,0,0,1,1.75251-1.05859c.90687-.33645,1.79834-.72119,2.68052-1.11849a.80533.80533,0,0,0,.49881-1.08861.85148.85148,0,0,0-1.068-.55338,7.41652,7.41652,0,0,0-1.94856.65734q-1.60344.72509-3.21,1.4327c-.245.10819-.53168.31284-.75107-.02033-.2258-.35064.00711-.589.24954-.83184a3.87919,3.87919,0,0,1,1.55358-.911,43.48,43.48,0,0,0,4.91505-2.06319,5.20975,5.20975,0,0,0,1.53393-.95924l.08773-.66417-.52594-.21925-.468.11734c-2.44424.8403-4.92857,1.56449-7.30935,2.58611l-.56512.21775a.493.493,0,0,1-.66443-.35l.26961-.57191.77507-.34381c2.37383-1.11658,4.91464-1.85469,7.17686-3.21317a2.71074,2.71074,0,0,1,1.05491-.249c1.56081-.22814.797-1.87461-.364-1.52752a6.20587,6.20587,0,0,0-1.22736.51954c-2.46674,1.3814-5.21807,1.921-7.89436,2.68339-.222.06372-.50223.17162-.59582-.17286l.32212-.58653.3314-.14421q4.12987-1.58793,8.26165-3.1721a2.749,2.749,0,0,0,1.24728-.7081c.441-.532.31339-1.207-.35473-1.30147-.70385-.1008-.93348-.53916-1.19271-1.04151a3.90838,3.90838,0,0,0-2.02182-1.99918c-.48352-.25881-.92721.11488-1.375.27355l-.705.02688a8.06378,8.06378,0,0,0-1.72617-.85667c-.42827-.17191-.401-.5957.03711-.808a11.68666,11.68666,0,0,1,1.13909-.40807l.88983-.37056a.77749.77749,0,0,0,.33726-1.04809.73228.73228,0,0,0-.90333-.42608l-.79555.28678c-.45528.15922-.91656.31066-1.37867.45556l-.42825-.14217-.04366-.57288.55909-.4381c.54915-.25213,1.10976-.49143,1.65263-.76225.42773-.21462.74412-.54315.55529-1.06419-.19155-.51955-.6497-.57739-1.1118-.45842a7.728,7.728,0,0,0-1.12927.4239c-.92694.40139-1.8506.80906-2.77767,1.21713l-.52977-.06385.19646-.52541.4943-.34095a9.51439,9.51439,0,0,1,2.206-.98426,2.71208,2.71208,0,0,0,.8785-.38786l.21352-.6366-.61068-.26005c-.56906.19892-1.1189.452-1.6791.68136a4.969,4.969,0,0,1-1.8907.61627Zm9.91018,69.19422c.32281-.0573.60659-.08459.87673-.15936a54.10537,54.10537,0,0,0,10.68923-4.19918c.80128-.41162.83921-.65095.19524-1.34933-.823-.89569-1.51006-1.89044-2.23848-2.85776-2.82788-3.76559-4.69267-8.097-7.06144-12.1282-2.20492-3.75549-4.18308-7.65588-6.25374-11.49555a60.34931,60.34931,0,0,0-3.823-6.71776,43.963,43.963,0,0,1-3.94663-7.35436c-.72816-1.60174-4.86485-10.15523-5.80434-11.75549a9.94233,9.94233,0,0,1-.67426-1.28369,52.03183,52.03183,0,0,0-2.82447-4.79267c-.23616-.42772-.49935-.31993-.70113.05717-.33727.64452-.66717,1.29408-1.0148,1.93055-2.01541,3.71129-4.40627,7.06553-8.34241,9.00781-.78328.38474-.75968.47533-.30015,1.33173,1.7694,3.31345,3.57225,6.60616,5.31492,9.9368,1.44307,2.75461,3.09133,5.413,4.3861,8.228,1.76287,3.82289,3.91416,7.42312,5.86872,11.13168,1.38809,2.64233,2.86826,5.24072,4.31188,7.86012a88.57335,88.57335,0,0,0,9.73091,13.71275,2.18453,2.18453,0,0,0,1.61115.89679Zm1.44634-86.11222-.85.00368c-1.976.18623-9.15652,5.623-8.29849,6.9703.4928.78218.83593,1.662,1.3417,2.4374,1.42956,2.187,2.6898,4.47709,4.20313,6.62334,2.90566,4.1135,5.59845,9.99969,7.93134,14.6667.41763.83294.82571,1.67239,1.30445,2.46415.4587.75448.62433.796,1.35522.33085,2.06315-1.30882,4.41-1.98608,6.60355-3.00047.33058-.15157.70782-.32034.91384.179.16849.41789-.15922.60017-.44123.74124-1.80107.89349-3.39831,2.15076-5.37715,2.744-1.83327.54929-1.98567,1.12286-1.13227,2.87127q2.47218,5.06655,4.94479,10.12739c.46128.9433.89746,1.90066,1.41237,2.81464a1.0795,1.0795,0,0,0,1.84747.29661,9.06393,9.06393,0,0,1,1.94445-1.204c2.08076-1.00129,4.42238-1.30772,6.43629-2.47737.28583-.16836.58858-.145.7201.16849.72147,1.66341,8.58446,14.71364,8.30436,16.42355-.24668,1.51758-4.80754,4.14585-6.69607,5.06242a2.64191,2.64191,0,0,1-1.28739.28392c-1.19338-.048-1.447-.71887-1.94174-2.0165-.2363-.62064.09128-1.011,1.051-1.533.92448-.50369,1.84761-1.00632,2.7647-1.51808a1.94575,1.94575,0,0,0,.83921-.674l.14162-.69079-.64383-.20927a2.44363,2.44363,0,0,0-1.25111.41119c-.74043.41192-1.46953.84633-2.224,1.23694-.41449.21256-.90347.28976-1.18344-.1846a1.07121,1.07121,0,0,1,.16168-1.34551,3.26,3.26,0,0,1,1.139-.67754,14.92444,14.92444,0,0,0,2.5464-1.406,8.18428,8.18428,0,0,0,1.62725-1.44564l.11147-.66091-.65366-.20177a3.945,3.945,0,0,0-1.09625.50508,29.54884,29.54884,0,0,1-4.65813,2.03233c-.32705.11133-.6474.12879-.82217-.25281a.63038.63038,0,0,1,.22921-.85258,9.46907,9.46907,0,0,1,1.035-.62692c1.07222-.55938,2.16042-1.09161,3.22843-1.66491.25991-.14148.61737-.25977.53932-.70509a.63019.63019,0,0,0-1.02066-.50181,27.6858,27.6858,0,0,1-5.96012,2.34981c-1.06544.28242-1.07853.364-.63076,1.44921q1.84065,4.4788,3.71157,8.94955a2.9363,2.9363,0,0,0,3.98184,1.89494,7.45184,7.45184,0,0,0,2.07926-.97128c1.06582-.72776,6.7108-4.5,6.90208-4.88312.371-.74916-1.02666-2.96049-1.31373-3.72261-.65925-1.76451-5.00632-11.75779-6.02575-13.31464a19.78026,19.78026,0,0,1-1.72373-3.462c-1.65726-4.04981-5.63924-10.06218-7.82969-14.60231-1.92905-4.00121-3.71143-8.07678-5.991-11.90635-.51831-.86636-.51558-.86636-1.48276-.65421a4.5274,4.5274,0,0,1-5.38657-3.65946,6.38653,6.38653,0,0,1,.71778-4.4603,1.23164,1.23164,0,0,0-.00969-1.44374c-.89378-1.63053-1.824-3.24837-2.58611-4.93757-.72092-1.59423-1.702-2.53522-3.55235-2.1708Zm49.64945,41.19882a22.873,22.873,0,0,0-.63088-5.52532c-.27614-1.00361-.63264-3.092-1.268-5.08095a68.11682,68.11682,0,0,0-4.70794-12.07336c-.97414-1.8173-1.94883-3.63338-2.94-5.44032-.1101-.19619-.15811-.65734-.57343-.40412-.43086.26223-.50781.08064-.43441-.297a1.88977,1.88977,0,0,0-.07722-1.40814c-.44409-.76936-.85667-1.55822-1.278-2.34013a64.46538,64.46538,0,0,0-3.70677-6.66086l-.0988-.21912a8.76385,8.76385,0,0,0-1.54689-2.86539c-3.59136-5.05408-5.62081-9.035-9.766-14.31907a54.81162,54.81162,0,0,0-4.87766-4.82705c-1.04755-1.05013-9.07344,1.55263-10.18933,2.17368a3.61838,3.61838,0,0,1-1.311.59362c-.36114.04-.634.22935-.58394.62692.05034.40112.15553.77849.66143.8931,1.2844.29688,2.565.60686,3.835.95477a1.99226,1.99226,0,0,0,1.63544-.10151,14.66186,14.66186,0,0,1,3.84649-1.43968c.26564-.06778.6538-.45089.81875-.04391.13493.33086-.3299.48869-.60605.628l-.7965.29565c-.79214.29716-1.59069.58981-2.37928.904-.35746.14366-.53305.32976-.14515.69377.55241.52609,1.03757,1.12613,1.58753,1.659a2.60055,2.60055,0,0,1,.606,2.90141,3.15236,3.15236,0,0,1-1.01971,1.62207c-.58012.43809-.59759.84617-.2,1.42506,1.64949,2.39743,3.236,4.83442,4.90864,7.21424,3.19557,4.54736,4.307,8.59469,7.03838,12.95827a28.59723,28.59723,0,0,1,1.97448,3.31986c.73947,1.62548,3.83749,7.2961,4.13287,8.491.39443,1.578,1.44252,2.84779,1.90858,4.40233a25.38431,25.38431,0,0,0,1.72944,3.59968c1.18562,2.46919,3.00156,5.97556,3.91881,8.25851q1.17491,2.91854,2.36345,5.836c.45515,1.10552.90033,1.16869,1.91213.52786,1.56968-.995,3.68291-2.17736,5.03893-3.20471a3.02206,3.02206,0,0,0,1.21386-2.27163c.03725-.48325.00669-.97114.00669-1.45658Zm129.38992-105.696a7.81835,7.81835,0,0,0-3.14593-4.731c-3.62642-2.80919-7.95521-3.69263-12.1915-1.84855-4.15948,1.803-8.16137,3.92574-12.14853,6.06014-31.842,17.04434-63.28784,34.8931-95.08484,52.069-4.51175,2.44283-9.35271,5.70705-13.78642,7.84116-2.29251,1.10141-4.55473,2.27545-6.82281,3.42762a3.66015,3.66015,0,0,0-.90033.60361c-.32676.32717-.38093.84275.02,1.05491a1.87788,1.87788,0,0,1,.96418,1.92113l.16509.44614a12.36188,12.36188,0,0,1,1.878,3.0871c.46811.79555.43741.752,1.29135.421,2.60794-1.00755,5.00539-2.45048,7.50935-3.66736a63.74172,63.74172,0,0,0,5.71333-3.20237,3.59012,3.59012,0,0,1,1.89166-.74152l.61259.2419-.31978.46974c-.6223.37083-1.23994.76142-1.88718,1.09216q-4.8038,2.46258-9.48574,5.1471c-.86308.49583-1.71675,1.00582-2.56879,1.5184-3.56844,2.14557,2.09345,1.22328,2.87563.59554a10.60409,10.60409,0,0,1,2.56265-1.37594c4.89786-2.066,9.38737-4.88449,13.97047-7.53718,3.00756-1.74309,5.89274-3.69069,8.93591-5.38016,4.70372-2.612,9.48315-5.06936,14.27705-7.50678l.54928-.2562c.47916-.19251.987-.31653,1.27771.24012.25254.485-.07422.84508-.46933,1.11181-.50181.34054-.99325.69786-1.52725.98806-1.45194.79486-2.932,1.5428-4.38514,2.33957-2.69635,1.472-5.54836,2.6291-8.29862,4.0001-3.30363,1.6487-6.30709,3.78553-9.51576,5.58892-2.0768,1.1672-4.13928,2.36657-6.1214,3.70133a20.17555,20.17555,0,0,1-4.43016,2.491,34.60457,34.60457,0,0,0-8.24815,4.3011c-1.128,1.159.64438,1.30022,1.2009.66812a3.03407,3.03407,0,0,1,1.64376-.981,12.63308,12.63308,0,0,0,3.29653-1.46585c.51-.24981.98848-.56347,1.50392-.78984a86.21857,86.21857,0,0,0,11.387-6.20215c4.163-2.59471,8.55471-4.73523,12.88365-7.00795a7.70616,7.70616,0,0,1,2.0933-.5733l.37724.21925-.09809.32417a5.73787,5.73787,0,0,1-1.30416,1.07456c-2.52146,1.54157-5.20063,2.7909-7.76014,4.26125-5.46324,3.13881-11.00889,6.12755-16.548,9.138-1.94459,1.05573-3.77037,2.33371-5.78468,3.256-3.09693,1.41523.2086,1.12081,1.11.60659q2.21553-1.2627,4.43943-2.49757c3.70392-2.0693,7.34863-4.24953,11.13714-6.16848,3.57337-1.80639,7.17986-3.54211,10.72674-5.39693,3.79779-1.98144,7.53992-4.07462,11.32174-6.09016.35091-.18555.67767-.59731,1.17975-.39173a2.48708,2.48708,0,0,1-1.01766.82614c-10.25319,6.78038-41.38793,24.10179-34.63852,21.1589.99461-.452,1.97884-.92063,2.98327-1.35231a34.83463,34.83463,0,0,0,5.76013-3.07673c10.44869-6.96962,22.25206-12.64611,33.3211-18.72576,24.83777-13.62544,51.21312-24.48794,75.44892-38.874,3.733-2.21651,7.753-3.90462,10.55539-6.23151,3.67568-3.04671,2.45268-6.075,1.62468-10.21934ZM185.4662,174.23811l.027.02674.42772-.567a7.629,7.629,0,0,1,1.922-1.01111c.3812-.15433.59213-.43468.368-.86581-.19633-.367-.406-.73784-.92735-.51982l-.88041.40794a23.2744,23.2744,0,0,1-3.90325,1.63787l-.82175.17643-.40807-.20547.13807-.53659.808-.526c1.28481-.76144,2.64724-1.39231,3.87365-2.2554.22935-.16153.52323-.26236.43154-.63319a1.97209,1.97209,0,0,0-2.646-1.26709c-1.01795.4916-2.03889.97772-3.04728,1.48934a2.96742,2.96742,0,0,1-1.767.24941l-.13424-.42488.57942-.42456a22.71958,22.71958,0,0,1,3.58386-1.74978,1.34451,1.34451,0,0,0,.96419-.66975l.14121-.789-.76513-.18571-.81942.22555c-.92626.27641-1.8506.55924-2.78054.83006l-.43822-.10123.11023-.44573c.41258-.67713,1.178-.80838,1.80681-1.14564l.90033-.34109c.36782-.22539.80632-.4707.59362-1.03745-.179-.46758-.61341-.61356-1.22054-.40793a6.13928,6.13928,0,0,0-.88914.38406,2.13223,2.13223,0,0,1-1.87025.07054l-.4928-.26578.34368-.59008c.4445-.26564.93035-.47534,1.39259-.71819a.95376.95376,0,0,0,.57616-1.18261,10.674,10.674,0,0,0-2.03628-4.079,1.041,1.041,0,0,0-1.36517-.38407c-1.92876.72393-3.87637,1.39464-5.812,2.10655-1.412.51543-1.61115.97112-.8901,2.24885.87428,1.54266,1.81472,3.04331,2.72474,4.56712a3.225,3.225,0,0,1,.5763,1.05848,10.652,10.652,0,0,0,1.6383,3.47524l.48886.50919c1.13144.22839,1.67472,1.17293,2.44025,1.87666a3.22053,3.22053,0,0,1,1.0721,2.58939,8.399,8.399,0,0,0,2.12742,5.53514,11.265,11.265,0,0,1,1.59342,2.56115c.3782.86063.401.849,1.2376.46224q3.30144-1.52241,6.6037-3.04344l.54683-.26019c.3801-.22907.32867-.50617.073-.79936a1.35057,1.35057,0,0,0-1.07933-.45078,3.51925,3.51925,0,0,0-1.29026.30288q-2.20489.85483-4.39565,1.73244c-.28978.11788-.55651.17846-.73838-.13725l.04366-.78982.77208-.57152c.826-.42636,1.66846-.82379,2.50794-1.22082.729-.348,1.46626-.68162,2.19141-1.03594l.33385-.4239-.50249-.23617a2.51847,2.51847,0,0,0-1.53.25636c-1.19107.50467-2.36727,1.04113-3.5496,1.56408-.33114.148-.66049.29579-.99776.43182l-.62419-.14954.26687-.606.404-.26632a48.818,48.818,0,0,1,4.33821-2.41952l.86363-.43932a.54262.54262,0,0,0-.45829-.9837c-.4224.14094-.83648.30016-1.25492.45185a1.458,1.458,0,0,1-1.49641-.06383ZM158.193,295.74661a71.57617,71.57617,0,0,1,14.121,2.10573c1.73844.47929,3.54552.75,5.298,1.23828a7.75788,7.75788,0,0,0,2.64643.209,20.7847,20.7847,0,0,1,4.34461.26537c6.70438.8886,9.54113,1.0983,15.96473,4.48392a4.00794,4.00794,0,0,1,1.39586,6.05373,4.61271,4.61271,0,0,1-2.14516,1.70543,36.84245,36.84245,0,0,1-7.38463,2.3296,15.59111,15.59111,0,0,1-2.29525.18229,96.08739,96.08739,0,0,1-11.15065-.27751,8.09083,8.09083,0,0,0-3.78892.5939c-1.09953.401-2.199.81042-3.28725,1.24033a18.98915,18.98915,0,0,1-4.7632.81588c-8.99921,1.09625-17.41544,1.3773-26.34221,1.97952-8.40695.5696-16.82114.30644-25.22454.1962-5.16759-.06931-10.3521-.02893-15.50919-.33742-8.94887-.53454-18.535-.95762-27.43873-1.89508a69.67082,69.67082,0,0,1-10.04526-2.24162,9.85365,9.85365,0,0,1-4.2944-2.39358c-3.80353-3.5312,2.81545-6.158,5.53527-6.45158a.52792.52792,0,0,0,.52186-.66061c-.34518-3.0208.26728-4.83142,2.28624-7.3485,4.22591-5.26,11.7163-6.093,17.04884-9.52953l.10451-.06c4.015-2.06207,4.18035-6.07079,3.34087-10.00133-.42459-1.96875-.562-3.9888-1.048-5.95659-1.36421-5.51727-4.61121-12.92061-6.68732-18.4151-.77265-2.04283-1.39615-4.13669-2.04981-6.21963-1.14127-3.6454-1.31454-13.65518-1.2942-17.64111.0154-1.78879.19468-1.71075-.24341-3.05247a7.82939,7.82939,0,0,0-.84549-3.11382,49.19344,49.19344,0,0,1-2.23261-7.29788c-.3973-1.97557-.69732-3.97215-1.05491-5.95973-.35513-1.97627-.033-6.27148,1.48768-7.82779a11.99579,11.99579,0,0,1,2.32853-1.93109,4.46337,4.46337,0,0,0,1.96247-3.43542,8.04556,8.04556,0,0,1,1.34811-3.45506c1.839-2.6,3.12939-4.93254,6.225-6.45853a14.98924,14.98924,0,0,0,4.86459-4.47655c1.41222-1.75892,2.89935-3.46571,4.25428-5.27538a7.3578,7.3578,0,0,0,.74821-.951,5.87976,5.87976,0,0,1,3.2118-2.63566c1.40964-.6067,2.83511-1.17945,4.27845-1.70186,8.59673-3.10143,6.97152-4.24024,11.50428-8.48786,1.47582-1.38153,2.87222-2.84152,4.2573-4.31856a18.89418,18.89418,0,0,1,10.61788-5.6593,32.7819,32.7819,0,0,1,7.37332-.337,13.70151,13.70151,0,0,0,2.89855-.17463,6.83956,6.83956,0,0,0,3.08751-1.32137,4.9611,4.9611,0,0,1,2.06289-1.23148l.51586-.46085a3.14016,3.14016,0,0,1,1.72536-1.45972,60.83575,60.83575,0,0,1,12.60109-3.91064,2.44886,2.44886,0,0,1,2.57464,1.23094,3.0191,3.0191,0,0,0,2.21842,1.496,40.50922,40.50922,0,0,0,7.36461.54983c.95107-.00371.99486-.12115.7995-1.07224a3.495,3.495,0,0,1,1.78373-3.79219,37.33023,37.33023,0,0,1,8.59864-3.24305,15.94976,15.94976,0,0,1,2.05321-.14053,1.56186,1.56186,0,0,1,1.29339.52869c2.9429,3.01874,5.29136,5.07058,8.32619,8.42714,1.48809,1.64185,4.51135,6.13559,6.12468,8.373a1.67518,1.67518,0,0,0,2.59948.55256l.60986-.39334c26.222-16.81554,85.21735-45.14356,112.618-62.86421a132.48324,132.48324,0,0,1,12.10214-5.45574c5.80256-2.33837,14.05561-3.19518,18.48619,2.96893a16.5881,16.5881,0,0,1,2.77153,5.89806c1.08917,4.70524,1.61142,10.5711-3.16869,13.46992L224.78141,175.31322a38.575,38.575,0,0,0-8.38076,5.295c-.6471.49607-1.34483.89335-2.01909,1.32805a1.11858,1.11858,0,0,0-.52923,1.322,7.61894,7.61894,0,0,0,.84248,2.26533c2.33673,4.27534,4.898,15.20032,4.98273,20.47119.01787,1.66355-2.62787,4.37873-3.81635,5.41-2.65569,2.30233-6.50465,4.83742-9.01354,1.31686-.74438-1.04972-5.97364-8.26547-6.17966-8.84641-.324-.90647-.41189-.944-1.29516-.52636-1.19586.567-1.73681.96432-2.99882,1.6982-.81562.47493-.83841.53673-.40809,1.43529,2.63959,5.5114,4.73988,11.24943,7.16676,16.8446.73852,1.70188,1.84241,4.33561,1.31045,5.91018-.458,1.36532-9.53062,5.94884-11.37863,6.32949a3.638,3.638,0,0,1-4.10954-2.22443c-1.32451-2.6808-2.57847-5.39639-3.90612-8.07705-1.38331-2.78708-2.80877-5.55124-4.23424-8.31841-.42116-.82379-.53919-.84343-1.40937-.3681a21.37784,21.37784,0,0,0-2.37655,1.45644,19.80728,19.80728,0,0,1-4.42893,2.488c-1.07879.42378-1.19667.73049-.69159,1.73478,2.29252,4.55091,4.25143,9.25735,6.36509,13.889a51.38337,51.38337,0,0,1,2.32115,6.24637,1.389,1.389,0,0,1-.4707,1.61689,26.28722,26.28722,0,0,1-7.261,4.75023c-1.76274.68679-3.57308,1.27073-5.38274,1.83027a3.62148,3.62148,0,0,1-3.92073-1.30431q-3.82248-4.38-7.36512-8.99717a23.38544,23.38544,0,0,1-1.98868-3.18533,32.958,32.958,0,0,0-2.07722-3.12449c-.48871-.70141-.77849-.80278-1.5207-.3a38.96186,38.96186,0,0,1-3.72657,2.01214,2.66988,2.66988,0,0,0-1.2848,2.18513,4.1767,4.1767,0,0,0,.38722,2.12278,35.35308,35.35308,0,0,0,4.339,8.3663,6.056,6.056,0,0,1,1.38467,4.40247l.0573.71805a1.14285,1.14285,0,0,1-.43441,1.28685c-.73509.63415-1.45343,1.28437-2.18772,1.91854a5.08875,5.08875,0,0,1-1.80421.97428c-4.71558,1.52179-12.59194,5.89847-16.21.09755l-.74125-.79214a15.60817,15.60817,0,0,1-4.19931-4.47969c-1.70543-2.35963-3.36188-4.75324-5.04357-7.12653-.60018-.84874-.6175-.84874-1.57309-.42361-1.58851.701-1.59533.704-.89774,2.32566a39.702,39.702,0,0,1,2.87822,9.61058,12.06385,12.06385,0,0,1,.00682,3.744,3.17166,3.17166,0,0,1-2.228,2.75175c-2.18459.74793-4.42853,1.26652-6.65473,1.86355a8.4434,8.4434,0,0,0-4.5831,3.12776c-3.32518,4.23929-6.21159,12.70832-2.26289,17.26878a19.08477,19.08477,0,0,0,3.57007,3.41809,13.66261,13.66261,0,0,0,6.73508,2.18759,70.28381,70.28381,0,0,1,11.39338,2.262,19.38532,19.38532,0,0,1,2.90645,1.21345,9.56428,9.56428,0,0,0,4.49921.77549,178.49469,178.49469,0,0,1,23.25946.25636Zm-47.91316,17.41381c8.61869.024,21.08525.6441,29.62208.21447,3.02762-.1468,6.0652-.56525,9.08872-.75012,8.194-.50576,17.8463-.801,25.7741-3.08955a25.94874,25.94874,0,0,1,4.18335-.63742c3.6076-.44125,8.60519-.5778,12.21538-1.00935a16.04014,16.04014,0,0,0,1.88034-.45569c.27342-.06644.61982-.09714.604-.46483-.02018-.36046-3.01643-1.55426-3.4668-1.66491a17.56162,17.56162,0,0,0-2.44968-.65475c-2.72146-.647,1.31577-.81287,2.22907-.65666,1.82673.31353,3.64634.70728,5.44755,1.15983,1.01084.2565,2.018.60686,2.36959,1.82343.23549.83309.21148,1.04824-.52718,1.48975a9.74182,9.74182,0,0,1-3.69123,1.10607c-5.96219.86991-10.90862.019-16.897.80906a7.782,7.782,0,0,0-1.41631.32348,52.03078,52.03078,0,0,1-13.30469,2.404c-3.95059.198-7.89191.66375-11.83487,1.02421-12.87954,1.18343-28.39418,1.0822-41.4279.50208-1.65521-.07436-3.31317-.0981-4.9692-.17164-9.23661-.38679,5.52381-1.30144,6.57068-1.30144Zm-4.47069-59.23273a.51616.51616,0,0,0-.56539-.502c-.40071.02635-.80974.16211-.8497.64972-.03712.39171.239.57371.60344.54342a.80458.80458,0,0,0,.81165-.69117Zm-1.93737,4.38254.23644.41067a1.21363,1.21363,0,0,0,1.44566-.4853l-.061-.43823c-.29947-.31325-.65666-.2086-.99856-.09045-.30616.10464-.58531.25252-.62255.60331Zm2.59211,1.05287c-1.26993.62648-1.49259.05744-2.96854-.21189-1.1998-.21829-1.48126,1.579-2.12741.776l.11419-.53864c.303-.19237.243-.36414.16426-.67742-.14775-.59729.45624-.76524.79869-1.07222.81779-1.30267-1.07456-.46988-1.61183-.33685-1.69575.41912-2.33508-.13275-.18719-.84044.615-.2026,1.22886-.40739,1.84065-.61886.77193-.27028,1.08123-.63033.93674-1.04114-.14857-.42881-.58366-.50687-1.37606-.22961-.83881.29333-1.66779.60713-2.50727.90305-1.78415.4984-1.81349-.59376.09823-1.36216.41067-.16822.81875-.34981,1.21277-.5531l.27655-.46374-.4992-.25732a5.77093,5.77093,0,0,0-1.78689.31735c-2.7362.82024-6.44708.62923-2.05634-.60331a54.58565,54.58565,0,0,0,5.34-1.60761c.55938-.22676,1.1133-.4767,1.67256-.70905.404-.16727.77535-.13809.77535.38488a1.35556,1.35556,0,0,0,.5823,1.0017,18.10522,18.10522,0,0,0,2.3943,2.40234c1.9102,2.16235,1.82166,3.902-1.0859,5.338Zm62.63473,49.317c8.009-.90907,1.05956,1.01493-2.23124,1.48318-3.92427.55528-8.44448.79445-12.40461,1.07332-1.8955.13535-3.78976.3299-5.688.401-8.96075.32416-16.77188.60754-25.58924.616a1.40127,1.40127,0,0,1-1.02408-.29755.428.428,0,0,1,.1539-.75775l.84276-.07395c15.39512-.31516,30.6444-.7058,45.94047-2.44422Zm-59.79211.77153c-2.91056.22676-5.82247.18569-8.7284.12975a89.64446,89.64446,0,0,1-18.33747-2.36c-.65242-.19374-.99938-.72433.1625-.73634,5.62082.90852,12.35877,2.27955,18.86942,1.791,6.4277.02019,12.8524.03042,19.28133.06767,1.45249.00926,2.90932.10424,4.36221.16752l.49471.19647-.48161.19525c-3.752.19222-7.4968.53933-11.25911.54874-1.45576.00382-2.90783,0-4.36358,0Zm36.2393-3.27879c-1.16447,0-8.51474-.50972-3.25669-.50972a138.70027,138.70027,0,0,0,15.458-1.03062c1.56178-.17559,6.5554-.28733,8.08005-.69527l.58244-.16141c.26236-.08581.58653-.12879.63415-.47247.04993-.34779-.22812-.482-.48844-.607a46.15776,46.15776,0,0,0-6.57232-1.905c-1.30716-.18487-1.67664-.70918-.03438-.7,3.92549,1.392,5.30171.66293,9.08885,2.64382.63333.49813.495,1.19612-.26345,1.52657a10.10339,10.10339,0,0,1-2.69362.67739c-2.07995.2872-4.16288.51245-6.266.60032-3.105.13056-6.20272.39074-9.30019.62036a43.17374,43.17374,0,0,1-4.96839.0131Zm-34.00246.8624c-2.01609.02633-4.028-.01992-6.05046.125a54.17162,54.17162,0,0,1-11.72025-.45817c-1.33134-.19413-4.85517-1.99383-.21735-1.265a24.21763,24.21763,0,0,0,4.087.51381c5.732-.09509,13.311-1.09488,18.88975-.10478,3.15259.304-.54574,1.1687-1.837,1.18657-1.04864.0131-2.09932.00259-3.15177.00259ZM97.156,294.85023c1.06556.17137,2.16522-.031,3.24073.14449l.3168-.37465c-.16276-.73716.26864-.74411.75817-.56184a3.82038,3.82038,0,0,0,1.87706.36374l.21612-.08486-.183-.20466c-.2007-.07913-.40576-.1475-.60755-.2247-.80059-.30712-.93007-1.18848.27724-.93035a25.063,25.063,0,0,0,3.63775.345c.93007.32035,1.13582.75585-.02524.96146a9.95758,9.95758,0,0,1-1.31632.06658c-.37438.01828-.93743-.077-.33029.56729l-.29008.41749c-1.49682.16931-2.84493.86963-4.29754,1.16706a7.39722,7.39722,0,0,0-2.45364.45051c-.6306.35473-1.4196-.07723-1.89494-.52132a4.86826,4.86826,0,0,0-3.1287-1.07278,25.32486,25.32486,0,0,0-11.89819,1.4874c-1.38085.57439-1.23623-.14544.05444-.79284,4.83565-2.15086,10.8977-2.0308,16.04714-1.20306Zm.2872,8.973c-2.7437-.57491-.13875-.60738.34886-.56863,4.37682.35459,13.71439.74984,17.93785.29388,2.85762-.30453,6.81818.87427.04325.773-7.36841-.08363-10.37556.91261-18.33-.49828Zm-13.7837,9.52956a22.6617,22.6617,0,0,1-4.06765-.58285c-1.78061-.60413-1.0931-.84659.35145-.69677,4.86484.4805,10.44406.32813,15.4366.46306l.4853.04064c.3621.06114.77918.11831.75926.6036-.01719.428-.37452.60031-.75926.6475-3.26256.39541-9.11246-.26084-12.2057-.47518Zm65.29083-5.63229c-1.05054-.00805-.98463-.44968.12061-.5677,3.10838-.33347,6.10176-.67058,9.23866-1.02708.69267-.07818,3.02543.07477.65925.77684-3.03321.45994-8.20079.70006-10.01852.81794ZM90.43962,247.96168c-.56047.05362-.82379-.06058-.93785-.35079-.121-.31037.077-.54654.30016-.73168l.518-.2962c2.61326-.95368,5.13443-2.15457,7.81769-2.9332a1.40464,1.40464,0,0,1,1.52071.3404c.33725.32033.25923.567-.10206.75271a7.9638,7.9638,0,0,1-1.00442.42813q-3.64609,1.30364-7.30048,2.58748a6.41239,6.41239,0,0,1-.81179.20315Zm17.34846,62.93938c2.45732-.09073,4.90741.25336,7.366.21652.47536-.00682,1.10867.013,1.09571.65448-.01037.6336-.6482.62964-1.12231.6231-1.36871-.01979-2.74056-.0131-4.10231-.13073a64.57064,64.57064,0,0,1-7.81442-.64859c-.9635-.4138-1.15451-.58721.10821-.66512.92624-.05825,1.85167-.03943,2.77711-.0457.5632-.01283,1.12954-.004,1.69206-.004Zm-14.40339-59.7138a6.71092,6.71092,0,0,1-.8729-.004c-.3269-.0599-.68422-.1921-.69473-.56552-.00968-.3707.39143-.34709.64411-.40535,2.63878-.59349,5.2047-1.44239,7.79627-2.19714a12.54174,12.54174,0,0,0,1.26066-.41435c.33467-.14258.63523-.20888.83593.14735.203.35459-.03343.621-.2887.82991l-.79976.53566a24.60971,24.60971,0,0,1-7.88088,2.07339Zm26.88892,56.10141c-2.44737-.395-.32118-1.18451.97386-1.18451a46.14026,46.14026,0,0,0,7.36009-.64874c1.448-.249,2.52431.36005.80142,1.11467a39.65744,39.65744,0,0,1-9.13537.71858ZM85.74368,251.195c.3284.69652.85477,1.29,1.17621,1.99128a42.39905,42.39905,0,0,1,3.14851,8.86183c.38964,1.81034.37081,3.26337-.53293.63387-.71136-2.06685-1.40937-4.1401-2.13615-6.20326a20.57422,20.57422,0,0,0-2.09385-4.61383,1.731,1.731,0,0,1-.27725-.84628c-.11815-1.593.47534-.33263.71546.17639Zm2.43659-9.03112c2.47055-.99788,5.05-1.67582,7.5638-2.53768.39537-.13916.97085-.34409,1.16732.20465.1876.526-.4194.614-.7523.75107-1.19667.48571-2.4067.9283-3.61688,1.37881q-1.811.67925-3.63161,1.33856c-1.68374.62064-2.97536.0839-.73033-1.13541Zm56.62028,56.408c2.01336.1531,1.072.69065-.1891.7103-2.21214.027-4.63658.05062-6.84682.09087-2.78817.05389-3.71361-.41642-.80142-.5894,2.85148-.16563,5.006-.22062,7.83734-.21177ZM103.36869,182.01351c-.76485.59063-1.52247,1.19776-2.31829,1.74334a11.06788,11.06788,0,0,0-3.43515,3.17908c-.36085.58871-1.09256.30575-1.58455.63742l-.30656-.41558a1.50953,1.50953,0,0,1,.461-.96391,21.97007,21.97007,0,0,1,6.65459-4.73605c.68053-.13152,1.21522-.17452.52895.5557ZM67.153,311.66741c-2.02741-.52145-.14421-.95969,1.29436-.825,1.44961.13029,3.11793.297,4.57055.28351l.604.02658c.96268.16674.7643.76242-.19633.8481a38.64036,38.64036,0,0,1-6.27258-.33318Zm36.6448-43.64264a.84087.84087,0,0,1-.90034.79582c-1.04468-.15294-3.98634-3.42259-4.8703-4.21391-2.09823-2.31365,1.17593-.155,1.84009.38106a31.85375,31.85375,0,0,0,3.39353,2.29578c.28433.17519.54329.35964.537.74125Zm-11.489-33.22587a41.6,41.6,0,0,1-4.02113,1.68878c-1.32532.28213-1.47158-.46428-.4546-1.21413q1.88116-.83477,3.78483-1.62193c1.43911-.22173,2.70577.148.6909,1.14728Zm-5.77649,66.11489a26.05719,26.05719,0,0,0-4.23438.20574c-.40112.05076-1.11863.2565-1.16938-.22852-.061-.611.72146-.46606,1.12954-.547a34.25463,34.25463,0,0,1,6.62594-.29647l.24271.01732c.34436.084.86977.1243.83635.526-.03739.47465-.56921.30916-.90265.31707-.80538.01638-1.615.00587-2.52813.00587Zm2.41284-55.59935-.25527-.1232.14109-.29033a3.37766,3.37766,0,0,1,.9643-.499c2.14939-.68788,4.29441-1.396,6.44776-2.07351.321-.101.84016-.324.977.058.15622.428-.40684.48544-.71369.62883a43.42139,43.42139,0,0,1-7.268,2.26345l-.2932.03574Zm15.82707,47.06811c-.57737-.04709-1.33446-.10465-2.09413-.18269-.96145-.09455-.48229-.40821-.09509-.722a19.87209,19.87209,0,0,1,4.29318-.0749c1.005.28405.9253.70714-.00722.901a16.30616,16.30616,0,0,1-2.09674.07859ZM89.9093,238.62465c1.38849-.53646,2.76363-1.10266,4.10927-1.75388l.56265-.19194.39089.21625-.07995.44518-.28392.215q-2.42124,1.08772-4.84738,2.1614c-1.30445.32444-.9444-.49335.14844-1.092Zm12.54378-52.468a17.90876,17.90876,0,0,1-2.56346,1.58427c-.421.23262-.858.43495-1.29013.6512l-.526.04639.05716-.444a7.33124,7.33124,0,0,1,4.01554-2.69742c.98929-.2801.5879.45473.30684.85954Zm-10.86182,43.956c.506.0266.82611.01337.85668.40125a.63819.63819,0,0,1-.58326.66662A18.118,18.118,0,0,0,88.304,232.651c-1.0867.42745-1.31494-.13193-.38256-.79664a11.355,11.355,0,0,1,3.66981-1.74172ZM88.553,226.901c.93594.04025.85817.49935.22075.89924-.74506.46836-2.17258.843-2.93771,1.27771-1.51988.44982-.771-.45133.37711-1.36257A5.63865,5.63865,0,0,1,88.553,226.901Zm61.801,71.74936c.47549.031.94235.02593,1.39722.03711,2.175.05267,2.01064.83048.11775.9474a8.551,8.551,0,0,1-3.01357-.33958c-2.69935-.91916,1.03431-.66785,1.4986-.64493ZM90.26962,229.43907c-1.13568.50208-2.278.99352-3.421,1.49205-3.169,1.37894-1.779-.16591-.39457-.79187,1.13322-.51258,2.29251-.96691,3.44879-1.42519.97673-.13043,1.47949.23439.36673.725Zm8.01553,57.69184c-.99175-.37069-1.278-.90278.00409-1.02585,2.2277-.21625,5.57416.90033,3.374,1.23405a24.19853,24.19853,0,0,1-3.37811-.2082Zm6.22347-95.95476.28963.12759-.13193.29361a19.16685,19.16685,0,0,1-3.37389,2.30613c-.29633.17152-.63742.27357-.87263-.04118a.66673.66673,0,0,1,.17791-.96435,6.84056,6.84056,0,0,1,3.91091-1.7218Zm-2.48149-2.79456.45556.18184-.09427.32938-.15814.17952a33.96472,33.96472,0,0,1-3.37129,2.31354l-.5396-.03508.00778-.44789a5.35165,5.35165,0,0,1,3.7-2.52131Zm-7.91033,86.987c-.02046.55376-.05062,1.20046-.54383,1.28194-.56578.09345-.53141-.58422-.62391-.98467-.16781-.75733-.31817-1.51754-.46565-2.27735-.30574-1.576.39963-1.58018.97823-.27286a10.24621,10.24621,0,0,1,.65516,2.25294Zm27.42156-89.15471.21883.05157-.16195.25882a14.91712,14.91712,0,0,1-3.75536,2.38337l-.67044-.021.054-.64029c1.32464-.91315,2.61219-1.91431,4.31489-2.03246Zm-25.05974-1.66123-.23822-.40507.35078-.616a36.31261,36.31261,0,0,1,3.02693-2.76853l.64233-.31312.52978.1816-.18869.49921a30.83766,30.83766,0,0,0-3.843,3.29339l-.28.12852Zm55.1573,119.01707a8.35551,8.35551,0,0,1,1.932-.02988l.16877.65407c-1.37457,1.06255-7.64972-.21434-2.10081-.62419ZM100.18349,246.8863a12.35428,12.35428,0,0,1-2.98912,1.09912c-1.20119.32674-1.11455-.46458-.29334-.777.83442-.31719,1.65849-.63536,2.51679-.94277.63784-.22784,1.57391.16852.76567.62066ZM85.30628,225.39106a8.98728,8.98728,0,0,1,1.58141-.90074c1.08793-.48993,1.27675.28488.44027.97564a4.61651,4.61651,0,0,1-1.34524.7561c-1.07128.39759-1.46967-.23846-.67644-.831Zm16.49219,64.136a5.77038,5.77038,0,0,1-.70987.01144c-.85094-.06192-1.62821-.70412-.02374-.8632a18.4223,18.4223,0,0,1,1.9165-.10014c1.71593.01077,1.3728.63726.12988.85544a11.02526,11.02526,0,0,1-1.31277.09646Zm-1.61116-9.74879A4.30056,4.30056,0,0,1,98.782,279.297c-.72242-.40507-.35009-1.10348.316-1.04754a14.08111,14.08111,0,0,1,1.41307.20056c.3906.07449.6872.31735.62731.73552-.07066.47192-.452.61382-.95109.5928Zm29.596,18.76288c.85667.11064,1.76983.21556,2.67659.35391l.42129.34763-.4078.3737a6.80711,6.80711,0,0,1-3.492-.61041l-.13548-.29688.27983-.16373.65761-.00422ZM99.3949,282.47209c-2.36263-.107-1.89111-2.222.88655-.96692a.48528.48528,0,0,1-.06779.86595l-.81876.101Zm.98521-9.01655c.84765.17748,1.7237.38759.79758,1.183a3.40286,3.40286,0,0,1-2.06261-.40806c-.81738-.40057.28446-.9811,1.265-.77495Zm45.83936-101.76343.30329.1393-.03.3198c-2.13684,1.7012-6.91832.73088-.27328-.4591Zm-22.18383,23.82827-.50467-.19116.03984-.44135a2.49682,2.49682,0,0,1,1.74936-.96445l.55352.37083-.28.49539a7.29828,7.29828,0,0,1-1.55808.73074Zm-23.27885,74.7647c-1.832-.43086-1.10933-2.0356.59213-1.06828,1.04481.59172.59117,1.347-.59213,1.06828ZM84.04521,245.92171l.51518.28693c.12907.58407.23276,1.17577.3138,1.76668l-.36783.32376a1.64106,1.64106,0,0,1-.71764-2.22183l.25649-.15554Zm19.57029-50.13433c.39061.02675.58326.33031.38407.66717a2.50706,2.50706,0,0,1-1.15273,1.01821l-.66431-.12431-.06015-.67151a2.03442,2.03442,0,0,1,1.49312-.88956ZM92.02458,267.10152c.56757,1.34879-.30806,2.067-.59457,1.1496-.09729-.31287-.18079-.63006-.25786-.93349-.31136-1.21508.35882-1.38633.85243-.21611ZM87.655,240.28261l-.11542.29278c-1.53939,1.55386-3.241-.21706-.38488-.70427.27723-.0468.45624.08391.5003.41149Zm12.43764,30.96079.489.12606c.36387.10381.73743.25525.59608.717-.12729.41763-.52471.43455-.90019.37752l-.4546-.13739c-.313-.11215-.63715-.27669-.56019-.65707.09263-.44628.4726-.47261.82992-.42608Zm52.22027,30.48613c.32417.08514.935-.24967.98861.27765.05034.48761-.596.4037-.95709.4943a3.75182,3.75182,0,0,1-.95722.0573c-.27656-.007-.64438-.0307-.68081-.35077-.04366-.38038.35365-.37056.60918-.41083.31789-.05032.64015-.04391.99733-.06765Zm-51.977-25.05168c-.33112-.05691-.71464-.031-1.03485-.09386-.85858-.17027-1.09024-.90566.0603-1.04891a1.82891,1.82891,0,0,1,1.42015.38433c.2977.3958.548.929-.4456.75844ZM133.86165,191.466c-.32308-.02-.67767.01035-.73455-.42786-.04422-.33726.478-.68394.9815-.65736.306.01708.57561.14082.582.47836.01376.56716-.42119.58681-.829.60686ZM94.47371,281.78718c-.12756.428.12757,1.193-.3535,1.217-.36782.01978-.27368-.796-.27068-1.24333.00423-.44627-.13084-1.23405.30438-1.22477.44123.01037.20274.80237.3198,1.2511Zm5.75726,1.39559c.27246.10533.523.29115.41476.6216-.13464.40369-.44122.21147-.69513.12361-1.47472-.64984-.87659-.964.28037-.74521Zm-7.21874,4.12278a1.3513,1.3513,0,0,1,.27259-.58039c.28665-.36019.55079-.25775.50113.17081a1.38537,1.38537,0,0,1-.24777.63742c-.36973.52705-.6119.20043-.52595-.22784Zm166.56023-137.035c3.14536-1.90026,6.2876-3.80693,9.51427-5.569,7.68493-4.1341,15.58421-7.71113,23.15209-11.48464,14.75293-7.35531,29.02833-14.8296,43.20714-23.24147,1.54267-.919,8.8355-4.95379,9.41452-6.08333.15172-.29074.30289-.62787.71833-.453.39034.16918.30575.537.23167.84672a2.05007,2.05007,0,0,1-.56907,1.05477,26.57126,26.57126,0,0,1-5.49435,4.34121c-4.2536,2.25267-8.06751,4.70685-12.29179,6.98694-21.52512,11.61739-43.23293,23.2457-65.62659,33.51116-.69732.31994-1.39232.647-2.07244,1.00157-2.65979,1.36732-2.20956.313-.18378-.911Zm32.025-18.9509-.56306-.2356.33726-.44191a39.26738,39.26738,0,0,1,4.90427-2.6385c2.92256-1.19776,5.71388-2.66334,8.49782-4.131,8.08879-4.2633,16.32383-8.88256,24.35464-13.3104,1.87433-1.03185,3.71538-2.127,5.55506-3.22258,2.39088-1.41867,5.77868-3.16105,7.87445-4.70562,1.21442-.65816,1.475-.11325.42813.80837-1.86683,1.34811-3.7046,2.74042-5.61564,4.02209-10.11361,6.74449-32.09238,18.15723-43.241,22.87118a18.18154,18.18154,0,0,1-2.53195.98394Zm-32.87333,16.35878q.92687-.68353,1.85838-1.35509c6.1686-4.46492,18.16283-10.476,24.971-13.84984a5.62421,5.62421,0,0,1,1.70557-.59993l.51654.1673-.16577.42431a3.773,3.773,0,0,1-1.16924.84971c-8.434,4.449-16.509,8.96347-24.73952,13.80717-.32212.18923-3.79711,2.11159-2.977.55637ZM249.364,138.2433c-.10724.47957-.49512.71042-.85558.97087a37.865,37.865,0,0,1-4.97588,3.00742q-4.86931,2.45661-9.72889,4.93484c-.3228.16208-.65625.30643-.9935.448l-.63116-.10789.24326-.62023.3879-.29074a74.37463,74.37463,0,0,1,8.82811-5.04821c1.63408-.70537,3.13772-1.67269,4.6984-2.52582a11.00984,11.00984,0,0,1,2.54927-1.11207c.25554-.06713.49185-.02292.47807.34381Zm25.59469-14.50748a89.42142,89.42142,0,0,1,11.0531-5.52491c.3917-.1685.99392-.546,1.17647-.08773.16126.41449-.31994.91971-.82884,1.16583-1.20347.58367-2.38965,1.18712-3.59041,1.77774-3.35629,1.64377-3.64375,2.36128-7.62082,3.57772-2.03355.62187-2.91765.71874-.1895-.90865Zm-28.72654,31.64856a.43309.43309,0,0,1-.47862-.62706,1.78411,1.78411,0,0,1,.82939-.85571c4.43714-2.65,5.4979-3.74595,9.86025-5.33049.22471-.08132,2.01186.15157.29252,1.13049-2.9227,1.63421-5.74007,3.45056-8.74381,4.9478a9.701,9.701,0,0,1-1.75973.735Zm45.66583-39.8671-.44967-.249.29686-.46974c2.07-1.32055,3.98511-2.87454,6.10873-4.119,1.56366-.91574,3.07085-1.92427,4.62456-2.85816.40412-.24627.96419-.82216,1.32792-.14067.28979.53524-.42772.76144-.80169,1.008q-4.81012,3.13466-9.63812,6.23847a2.62137,2.62137,0,0,1-1.46859.59007Zm28.29458-13.99571c-2.3966,1.4196-4.85024,2.7306-7.2066,4.21337a36.73342,36.73342,0,0,1-3.90734,1.9255c-.79746.37369-1.96166.412-.58966-.39239,3.188-1.66068,6.1851-3.6357,9.2257-5.54469a18.96063,18.96063,0,0,1,2.30028-1.2904c2.95884-1.3173,2.788-.44764.17762,1.08861Zm9.93461,7.16717c-1.64867.7684-3.23047,1.66068-4.80072,2.571l-.53946.26989c-.40139.16181-.93375.60031-1.19966.21488-.25309-.36646.19457-.89241.54505-1.19243a7.75094,7.75094,0,0,1,1.50378-1.01112c1.5473-.78818,3.11494-1.5267,4.67534-2.28609,2.05306-.46647.957.89978-.18433,1.43392Zm4.83074-17.3651.57943.06385c.28256.07054.56034.19562.57658.53005.01268.337-.24327.50222-.53726.5557a14.58531,14.58531,0,0,0-2.32075.63742c-1.25111.441-2.49486.89938-3.75552,1.311-.47233.15158-1.14345.47165-1.36884-.20315-.23262-.69063.50849-.77727.97468-.94931,1.57978-.59677,3.14182-1.24074,4.77657-1.67926.38789-.10476.7785-.19153,1.07511-.2663Zm-74.23725,52.38727a15.763,15.763,0,0,1-2.83483,1.62191c-1.1328.61657-2.28882,1.19328-3.44865,1.76235-.35023.17191-.80278.44136-1.09816.0105-.32458-.47536.03015-.87058.42758-1.0987a23.01788,23.01788,0,0,1,6.28294-2.79732c.56634-.08582,1.0103-.12224.67112.50126Zm54.71566-42.18934c-2.5726,1.66245-5.26118,3.11848-7.97281,4.53371-1.67105.76881-1.08234.04557-.00846-.61081a75.43123,75.43123,0,0,1,6.60888-3.96656c.84644-.407,3.59546-1.68715,1.37239.04366ZM266.05,130.28467a40.05606,40.05606,0,0,1-5.60964,2.52882c-2.04283-.343,4.57083-3.18616,4.9789-3.39122.97469-.48762,2.63182-.28774.63074.8624Zm-35.97353,26.4852-.42513.55638a11.30333,11.30333,0,0,1-2.322,1.53339,9.99724,9.99724,0,0,0-1.92222,1.25806l-.50875.32376c-.27616.12756-.56021.1569-.74808-.14588l.10751-.66318a7.18052,7.18052,0,0,1,1.10839-.93362,29.46065,29.46065,0,0,1,3.72561-2.02689l.69365-.20193.291.29991Zm73.6357-34.44314-.17818.28651-.83621.68679c-1.61129,1.05889-3.23554,2.09088-4.92473,3.02109-.41081.22157-.99461.62746-1.28426.13807-.37765-.6336.38775-.83607.78886-1.09189a7.75213,7.75213,0,0,1,1.49983-.76539,16.28669,16.28669,0,0,0,3.17237-1.70884,5.164,5.164,0,0,1,1.375-.73811l.38733.17177ZM214.045,157.94266c-.40577-.01967-.52979-.20834-.40877-.4853l.40221-.43127a50.59371,50.59371,0,0,1,5.716-3.17946l.33645-.13057c.33727-.08091.83662-.40808.98165-.10765.14776.30643-.41734.50085-.69773.69759-1.82658,1.2702-3.84963,2.21406-5.72955,3.39749l-.60031.23917Zm8.74352-5.22844c-.29047-.03015-.57043.031-.65734-.28187l.28692-.46961c1.55387-.671,2.99256-1.5705,4.5033-2.3258l.68708-.2318.31707.06-.12484.3067a11.98547,11.98547,0,0,1-3.15586,2.21106,6.99415,6.99415,0,0,1-1.85633.73129Zm-11.28285,6.11469-.14462.189a5.28518,5.28518,0,0,1-1.89426,1.27389,23.20048,23.20048,0,0,0-4.99868,2.42444l-.415.24558-.6231-.14135.30016-.415q3.67062-1.84965,7.34453-3.693l.34709-.0779.08391.19439Zm105.99017-43.8032-.26714-.11924.064-.428a5.15662,5.15662,0,0,1,1.72958-1.08793,7.79406,7.79406,0,0,0,2.52608-1.1058l.6538.06713-.17885.61764a16.08851,16.08851,0,0,1-4.34586,2.05238l-.1816.00382Zm-60.93529,19.24408a.67857.67857,0,0,1-.30985.65393,12.342,12.342,0,0,1-3.45506,1.69765l-.509-.1846.20206-.5119c1.10935-.65379,2.218-1.30827,3.3436-1.93521.324-.1817.63087-.11444.72829.28013Zm43.33252-21.25389-.4355-.19551.09824-.42773a9.47949,9.47949,0,0,1,2.892-1.8772l.631.181-.14121.53264a12.27876,12.27876,0,0,1-2.84221,1.75605l-.20233.0307Zm-64.73075,40.47736-.28953.53632c-.73183.49253-1.46638.98424-2.20764,1.45617l-.69732.11474-.44232-.3636.21529-.50358c.95764-.50453,1.9195-1.00757,2.88943-1.48932l.53209.24927Zm98.61806-46.84517-.63019-.27259c-.1483-.33659.11188-.52609.35432-.671a7.64356,7.64356,0,0,1,1.65072-.98424c.34422-.10028.74793-.19537.94413.24272.1689.37765-.11406.61693-.39689.76935-.62419.33618-1.117.96405-1.92209.91575ZM208.17625,163.7534l-.54314-.25161.09714-.54983a7.65733,7.65733,0,0,1,2.08294-1.19937l.73484.25145-.32212.56727a6.92359,6.92359,0,0,1-2.04966,1.18209ZM341.61062,93.91069c-.03657.37754-.21885.57166-.48489.47206-.78982-.29372-1.5574-.62826-2.3258-.96869l-.26032-.49168.43537-.35a4.51554,4.51554,0,0,1,2.36.77835l.2756.55991Zm1.5166,1.33039a2.10622,2.10622,0,0,1,1.68251,1.21086l-.14094.66443-.64818.04c-.41067-.37438-1.03787-.43168-1.34144-.96077-.12757-.222-.51845-.34764-.3-.68136l.74807-.27314Zm-51.3209,33.61854c-.30015-.02718-.59294.02237-.66321-.28733-.07517-.30616.19128-.42732.41067-.502a17.9785,17.9785,0,0,0,2.13329-1.13622l.76526-.007-.25621.70182a5.46784,5.46784,0,0,1-2.3898,1.23064ZM239.582,150.39224l.19538.46224a4.65081,4.65081,0,0,1-2.339,1.54649l-.37479-.2258.06781-.31626a14.3722,14.3722,0,0,1,2.33357-1.45575l.11706-.01092Zm102.13-48.48593-.13166.28706a3.92744,3.92744,0,0,1-.9137.65923c-1.00989.50688-1.772-.0573-.66239-.81315a3.36383,3.36383,0,0,1,1.18138-.52484.40523.40523,0,0,1,.52637.3917Zm-1.95183-1.75318c.007.54219-1.32151,1.44921-1.81376,1.21686l-.19838-.49867a2.30664,2.30664,0,0,1,1.61034-1.0957l.4018.37751Zm-13.089-2.15184a.86429.86429,0,0,1-.98369.76335c-.36794-.01992-.64124-.18965-.59117-.58421.05785-.50481.44519-.603.8845-.58285.34327.01351.62883.101.69036.40371Zm18.27007,1.211c.04366-.28269.0277-.60386.42131-.63333a.75627.75627,0,0,1,.70509.81913.607.607,0,0,1-.63114.60661c-.5295-.02019-.48189-.4388-.49526-.79241Zm-131.03542,61.3398-.40373-.36794c-.024-.29661.78123-.83484,1.22055-.82147l.32594.28979c.03452.3801-.65379.91656-1.14276.89962Zm-7.79329,3.85621c-.02592.5089-.33.85271-.71464.78572l-.432-.49894a.8907.8907,0,0,1,.85381-.72146l.29278.43468Zm7.41264,34.8901c.42006-.479.49347-1.38849-.30249-1.16229a26.02193,26.02193,0,0,0-4.64478,2.51394c-.5385.413.23958,1.47923,1.21222.9092.33713-.19728,3.70966-2.23193,3.73505-2.26085Zm-2.09961-3.85509c-.84575.61641-4.19645,2.53957-4.314,2.68653-.83894,1.0459.25445,1.78033,1.887.73142q1.47084-.93525,2.9017-1.93054c.8422-.59063.88872-1.949-.47467-1.48741Zm4.03137,7.02842c.33781,1.72644-.43414,2.92515-2.15526,3.68468a27.086,27.086,0,0,1-3.63884,1.63107c-.69895.19551-.85353.13862-1.08274-.498l-.05308-.23646c-1.17686-6.7191-3.36664-9.17069-5.96409-14.14416-.17436-.49662-.18869-.85583.304-1.12543,1.942-1.07674,3.68767-2.47724,5.69326-3.45247l.65679-.3138c.62337-.28174,1.41906.51381.54328,1.05191-.79213.48161-1.59068.9575-2.40356,1.406a16.07443,16.07443,0,0,0-2.7482,1.76287c-.27873.24-.58476.49539-.37723.91752.19673.40384.48638.66416.95777.33631a31.156,31.156,0,0,1,4.76073-2.9564c2.29606-1.09748,2.79623-.17272.73989,1.22475-1.49763,1.01728-3.111,1.40639-4.38924,2.60142-.06219.058-.98382,1.62971.70469.73524,1.4125-.7482,2.795-1.49464,4.18432-2.25473a1.03921,1.03921,0,0,1,1.63515.84537,3.53136,3.53136,0,0,0,.53237,1.55085c.80266,1.54007,2.52173,5.23785,2.1,7.23348Zm-12.12069-17.73184c.10163-.10576-.15787-.471-.43483-.38706-.62609.18964-1.7791,1.06989-2.13479.99758-.418-.08852-.28583-.75994-.02251-.95788a9.56728,9.56728,0,0,1,2.87195-1.55126c.95845-.40426,1.86615-.028.69458.86431-.2378.18089-.45664.34409-.47724.42308-.21407.80836.81574.09633,1.83368-.38051a19.32188,19.32188,0,0,0,2.026-1.01221c.97523-.67671,1.87379-.2389.69458.62-2.33739,1.37526-4.00653,2.64574-6.5768,3.9641-3.14729,1.59383-2.6508-.07081-1.023-.968a14.134,14.134,0,0,0,2.54833-1.61211Zm-.8107,5.26651c-1.687.98628-1.6012-.55256.66825-1.81731,1.50953-.84248,3.00661-1.71525,4.513-2.568,1.09025-.61873,1.77788-.42745,1.89112-.233.47452.816-6.43752,4.26289-7.07235,4.61831Zm4.03163-10.42005a3.39962,3.39962,0,0,1-.96021,1.298,11.28579,11.28579,0,0,1-1.44963.86431c-1.11549.55147-2.25144,1.07511-3.37784,1.61034l-.53564.26957c-.38078.125-.843.2999-1.051-.1918-.19208-.44833.24518-.65312.55558-.79937,1.67922-.789,3.27045-1.72945,4.86389-2.67371.41529-.242.82991-.498,1.261-.70414.2793-.13029.55979-.101.69377.32676Zm-8.28525,2.407c-.40767,0-.46115-.24463-.3797-.56566.09989-.38774.44737-.55938.74113-.755a39.96051,39.96051,0,0,1,4.40491-2.48515l.56347-.20454a.56722.56722,0,0,1,.63347.83569,1.8499,1.8499,0,0,1-.74521.765,26.04621,26.04621,0,0,1-3.99165,1.96507,2.27839,2.27839,0,0,1-1.22642.44464ZM181.88929,143.5431l.203.00968c.30316.07027.73088.02361.79473.40794.06767.41422-.35732.50165-.6497.56662a15.57231,15.57231,0,0,0-2.83907,1.02448,6.13781,6.13781,0,0,0-1.6653.95682l-.50127.3c-.38419-.007-.867.07694-1.08234-.35733-.24585-.50194.17546-.74793.52882-.9197a22.6626,22.6626,0,0,1,4.58026-1.858l.63085-.13057Zm19.31462,32.6257.40616-.09469.3737.13166-.20861.2535a41.51217,41.51217,0,0,0-4.83824,2.93279c-.30261.2052-.62022.279-.83169-.07408-.19621-.32758.0974-.51613.322-.671a8.089,8.089,0,0,1,1.035-.61395,8.90188,8.90188,0,0,0,2.10137-1.396c.47507-.40371.943-.98424,1.64035-.46824Zm-2.11324-1.29408-.10394.21529a4.2211,4.2211,0,0,1-3.14811,1.78361c-.39484.06753-.60045-.1992-.468-.61355a3.50358,3.50358,0,0,1,3.42355-1.65154l.29647.26619Zm-1.59014-3.196.33727.06167-.024.306c-6.57107,4.18963-3.9626.93744-.31325-.36769Zm5.78714,4.21419c-.3228.01-.56907,0-.69459-.25977l.20888-.62706a3.087,3.087,0,0,1,2.0165-.6032l.37438.26294-.14189.41708a4.34245,4.34245,0,0,1-1.76328.81Zm-16.58414-29.07786c.30656.004.62036.027.67043.38174.04379.33-.198.49921-.48885.59308l-.34681.104c-.519.11911-.97469-.07735-.951-.42758.031-.45842.41176-.53933.772-.607l.34423-.0442Zm10.96823,22.51454-.168.24886a1.52331,1.52331,0,0,1-1.12979.291l-.26688-.19564.10191-.30712a1.91812,1.91812,0,0,1,1.23692-.32648l.2258.28937Zm-7.40485-19.78695c-.09891.41149-.45255.47507-.823.48487l-.41844-.334c-.02279-.31966.5194-.677.90019-.60318l.34122.45228Zm9.11437,21.63073-.45446-.28952c-.01433-.45173.36673-.45514.68012-.49921l.50877.16181c.03753.48514-.39689.52334-.73443.62692Zm-16.77351,39.951c-.46484-.013-.86323.04393-1.01481-.40767-.15526-.44846.1423-.65338.46579-.86308a15.31871,15.31871,0,0,1,2.25457-1.15219c1.59806-.6811,3.17906-1.39875,4.7733-2.07981a1.35417,1.35417,0,0,1,1.82345.81806c.1423.40781-.20534.49935-.42855.60059-1.20935.55324-2.42989,1.07851-3.64661,1.60842a17.53909,17.53909,0,0,1-3.38085,1.30336c-.31339.06412-.63087.12866-.84629.17232Zm-4.04761-8.74736a4.74884,4.74884,0,0,1-.74207-.006.63431.63431,0,0,1-.5662-.54915l.35336-.58026c.43168-.21652.86022-.44777,1.30841-.62023a31.09125,31.09125,0,0,0,6.05373-2.99964l.4179-.22567.6703.13016.07463.67753a4.15994,4.15994,0,0,1-.75216,1.08614,13.79451,13.79451,0,0,1-6.35689,3.05288l-.461.03424Zm1.236,2.58557a.64346.64346,0,0,1-.77495-.42377c-.181-.40534.01037-.69117.35391-.914a25.48991,25.48991,0,0,1,2.98-1.3391,32.65676,32.65676,0,0,0,3.5432-1.84c.38367-.243.79434-.50972,1.17566-.06658a1.14318,1.14318,0,0,1-.18446,1.42861,14.44919,14.44919,0,0,1-7.09336,3.15477Zm1.493,3.0313-.59949-.28053.18173-.65364.58354-.41176a15.29256,15.29256,0,0,1,2.50806-1.17961c1.37487-.51886,4.08553-2.51708,4.55391-1.40623.43809,1.045.4591,1.03568-.428,1.64254a17.87775,17.87775,0,0,1-6.79975,2.28923Zm-3.67091-8.52551-.62009-.128a.52572.52572,0,0,1-.14379-.95379l.72787-.41831q2.922-1.15362,5.85863-2.28571l.57561-.17448.61056.30944-.10479.66061-.54956.4591a58.05046,58.05046,0,0,1-5.44114,2.33276l-.9133.19838Zm-3.168-4.773c-.57288-.00668-.91-.12456-1.03759-.52895-.12878-.41176.16456-.59622.47452-.72147,1.01494-.4018,2.0296-.79637,3.05109-1.17688.25636-.09387.5669-.20918.74179.14419l-.1517.76323a8.16522,8.16522,0,0,1-3.07811,1.51988Zm-1.42165-3.04453a.6532.6532,0,0,1-.712-.49157.71621.71621,0,0,1,.43208-.90074,18.24945,18.24945,0,0,1,2.167-.75067.679.679,0,0,1,.843.30289.6436.6436,0,0,1-.263.85012,4.6107,4.6107,0,0,1-2.467.99Zm.1041-4.30683.64.316-.13807.77235a2.45973,2.45973,0,0,1-1.66914.54176c-.415.00807-.57875-.437-.32621-.80521a1.9376,1.9376,0,0,1,1.49341-.82489Zm4.09522-7.51057c.29074-.01365.58052.01309.64779.36359a.56109.56109,0,0,1-.36169.68067c-.68722.16918-1.39218.26673-2.09263.37438l-.26946-.17791.11406-.425a4.96187,4.96187,0,0,1,1.96193-.81574Zm-10.06545,1.2511-.38434-.23646.09782-.44107a2.51082,2.51082,0,0,1,1.70557-.77973l.31093.48626a2.6889,2.6889,0,0,1-1.73.971Zm4.723,4.567a.83725.83725,0,0,1-.63075.63753l-.917-.03463-.05989-.54287a1.26013,1.26013,0,0,1,1.22327-.61641c.25622.03383.3973.25226.38435.55638Zm5.54086-2.43386-.60672-.337c-.07081-.36114.49225-.76813,1.05614-.77863.32021-.004.613.11065.54532.47138-.101.55188-.62418.53564-.99474.64424Zm-7.9649-.66784a.84.84,0,0,1-.96378.68817l-.44871-.45433a.81457.81457,0,0,1,.90086-.73483.47238.47238,0,0,1,.51163.501Zm-3.36775,63.72278a4.42774,4.42774,0,0,1-1.9446-1.4563,4.05242,4.05242,0,0,1-.4756-1.85428c-.064-.64411.47246-.995,1.032-1.1893.80223-.273,1.6177-.50985,2.42962-.75148.34041-.10478.66908-.22975.40917-.65734-.18337-.3007-.24012-.85708-.85-.5396a11.345,11.345,0,0,1-2.83795,1.03772,7.1584,7.1584,0,0,1-1.68553.17641c-.36114-.00668-.76922-.05157-.87659-.48966-.11843-.47848.27614-.63963.60631-.77208.78532-.32021,1.59451-.5793,2.37942-.90675.894-.3711,1.77-.78177,2.64642-1.18575l.62023-.38106c.24981-.1659.44246-.36783.29784-.70154-.16591-.38407-.45952-.39471-.8036-.26946q-2.05245.74287-4.10218,1.47963c-.57261.20547-1.14223.4048-1.72262.58326l-.83184.09018-.67071-.4647c-.125-.35063.15772-.5089.37328-.68408a10.82468,10.82468,0,0,1,1.99631-1.12954c1.8772-.95736,3.95715-1.39873,5.84881-2.322a.92676.92676,0,0,1,1.439.75476,8.72919,8.72919,0,0,0,2.24844,4.09289c.6804.8489,1.3447,1.71226,1.98089,2.59158a1.72617,1.72617,0,0,1-.50494,2.8213,55.72207,55.72207,0,0,1-7.00154,2.12717ZM153.564,225.64292l-.37724-.003a.71315.71315,0,0,1-.48762-1.23119,2.18556,2.18556,0,0,1,1.15192-.62227c.77181-.23344,1.53693-.49622,2.29851-.76349l.37164-.54478-.61381-.26987c-.4355.07367-.86309.19865-1.29518.31a14.0823,14.0823,0,0,1-2.97877.51163c-.28378.01146-.63374.05444-.69159-.30316l.49935-.44478c1.37226-.59553,2.79063-1.07223,4.12565-1.75277,1.44265-.73443,2.90591-1.4196,4.35186-2.13713.3367-.16479.68734-.364,1.01055-.081.39457.34818.12852.756-.02715,1.116l-.41421.58967-.09687.759a.70972.70972,0,0,0,.85246.27614l.79185-.30329c.30329-.08391.64792-.19606.8725.1584a.86476.86476,0,0,1-.00668.92323,2.42638,2.42638,0,0,1-1.05833.97075,25.364,25.364,0,0,1-6.03245,2.4711,7.56605,7.56605,0,0,1-2.24639.37083Zm2.07353,6.97371a.81647.81647,0,0,1-.84208-.50481c-.15921-.38133.1516-.5898.3737-.813l.85626-.44121q4.56149-1.6235,9.12487-3.23213c.397-.14285.8594-.43168,1.20622.07094a1.11791,1.11791,0,0,1-.121,1.35084,4.36759,4.36759,0,0,1-2.64614,1.80394c-2.51476.58025-4.98818,1.34429-7.55029,1.70857l-.40152.05689Zm-.94672-3.34333-.70809-.17136a.49622.49622,0,0,1-.0172-.88764,4.4631,4.4631,0,0,1,.97743-.47411q4.268-1.55862,8.53888-3.09788l.57616-.183c.415-.145.80264-.16111,1.0657.26266.23138.371.03041.69772-.15528,1.0148l-.63455.54028a29.52384,29.52384,0,0,1-9.30333,2.97017l-.33972.02606Zm13.21695,1.207c.607-.01324.88887.36673.6602.9403a1.83045,1.83045,0,0,1-.97728,1.02829c-.62309.28012-1.24073.57959-1.87815.83582-1.60379.64711-3.22531,1.25779-4.82649,1.91526a11.58174,11.58174,0,0,1-2.57849.62283.73776.73776,0,0,1-.89365-.44193c-.16494-.42416.26032-.50193.4853-.70794a5.37992,5.37992,0,0,1,1.70243-.89528c2.41653-1.015,4.84083-2.00957,7.261-3.01821a3.328,3.328,0,0,1,1.04509-.27914Zm-13.622-21.25362a1.52687,1.52687,0,0,1-.58312,1.02433,12.346,12.346,0,0,1-2.409,1.5989q-2.37313,1.08219-4.74723,2.14693a1.30314,1.30314,0,0,1-1.153.12456c-.90333-.41544-.86609-.6909-.20479-1.40555,1.0148-1.10252,2.3831-1.30458,3.66968-1.68673a30.11,30.11,0,0,0,4.5471-2.23712c.55336-.26973.90673-.09059.8804.43468Zm3.06431,3.708-.29742.6369a4.36993,4.36993,0,0,1-.87168.64452c-1.85128.78518-3.5709,1.88347-5.58,2.29605a7.56374,7.56374,0,0,0-2.50058.86541.413.413,0,0,1-.67753-.22226c-.12784-.30738.05362-.44191.28338-.55951l.11392-.04339a47.97732,47.97732,0,0,0,5.76422-2.48515,33.39786,33.39786,0,0,0,3.04439-1.46956c.47834-.26275.74535-.10762.72133.337Zm-8.11278-4.03407a8.956,8.956,0,0,1-1.21087.53906c-1.23419.374-2.48461.69008-3.71851,1.06487a.68.68,0,0,1-.90689-.35746c-.23167-.46772.175-.64056.486-.81179a37.4567,37.4567,0,0,1,5.5683-2.3164c1.24866-.45569.28719,1.64733-.218,1.88172Zm.49156-5.16118c-1.48617.80579-2.96977,1.61484-4.47,2.38924a10.3608,10.3608,0,0,0-2.5452,1.35534l-.32294.15486a.65154.65154,0,0,1-.806-.35582.55638.55638,0,0,1,.20205-.83389,9.37553,9.37553,0,0,1,1.51674-.738,53.7493,53.7493,0,0,0,6.26643-2.805c.75-.36428,1.04345.3535.159.8332Zm5.38,14.8292-1.39231-.96855.25513-.34641c1.5413-.58707,2.92011-1.54157,4.50111-2.04024.32649-.10478.64-.20574.86936.12771a.76393.76393,0,0,1-.08049,1.00142l-.7081.65052c-1.0148.86636-2.34981,1.022-3.4447,1.57555ZM144.2308,202.9738l-.40139.5868c-.88027.40139-1.76273.792-2.65242,1.16542a.60723.60723,0,0,1-.849-.21829.58011.58011,0,0,1,.2715-.82311,9.091,9.091,0,0,1,2.74029-1.21973c.40889-.08076.83007-.04011.891.50891Zm5.59559,17.36428-.57357-.12852c-.44137-.20957-.492-.70826-.06031-.9211a22.16721,22.16721,0,0,1,2.43373-1.01068.78382.78382,0,0,1,1.0358.57273c.17123.489-.24038.6002-.547.7717a8.2865,8.2865,0,0,1-2.28868.71587Zm.75257-6.53958-.28692-.11256.201-.39074a14.53271,14.53271,0,0,1,2.37737-1.17607c.67766-.26264,1.342-.54642,2.01568-.816l.54287.12536-.13521.532-.468.36742c-1.27771.48625-2.56592.95053-3.85359,1.41564l-.3932.055Zm-12.66944-15.16182-.62869-.30711.03316-.68136a3.10985,3.10985,0,0,1,1.48236-.95738l.62746.2426.01009.67481a2.43157,2.43157,0,0,1-1.52438,1.02844Zm1.40664,3.363c-.48229.003-.731-.33017-.60318-.71805a2.69425,2.69425,0,0,1,1.70161-1.19585.58783.58783,0,0,1,.54956.90606,3.186,3.186,0,0,1-1.648,1.00784Zm-2.76389-5.54155-.45883-.20493.03057-.44218a3.53326,3.53326,0,0,1,1.36161-.96323l.54315.11706-.04121.56061a2.28968,2.28968,0,0,1-1.43529.93267Zm9.27018,5.26909c-.32731-.02633-.64438-.0749-.70469-.39907l.41763-.52118c.40412-.16931.81178-.33453,1.23023-.4624l.50194.22624-.08732.55255a2.0545,2.0545,0,0,1-1.35779.60386Zm18.52834-12.43545-.14763.26564-.51667.30643q-3.91192,1.6143-7.83243,3.20935l-.46988.11569-.47452-.29387.24558-.47411c.65516-.39266,1.28085-.8436,1.96589-1.17157,1.928-.9227,3.87664-1.80257,5.82124-2.67889.57658-.25529,1.40187.16209,1.40842.72133Zm-4.60726-1.66818.4823.084.31243.34041-.26564.34408c-.6632.29661-1.3245.60236-2.00217.86254a13.46151,13.46151,0,0,1-2.93252,1.123c-.28365.04025-.57685.14394-.7257-.213a.54364.54364,0,0,1,.28652-.70757,15.65923,15.65923,0,0,1,4.84478-1.83352Zm-5.27223-13.3085c.04366.32417-.18555.428-.40862.52978q-2.20452.9903-4.41216,1.97475l-.3359.13862c-.304.11472-.44819-.09223-.56032-.31026l.21623-.45951q2.34491-1.11617,4.68148-2.24775c.43509-.20848.69077-.05294.81929.37437Zm-18.57964,82.39657a2.977,2.977,0,0,1,1.01043-.65011,1.34224,1.34224,0,0,0,.74918-.58258l-.14928-.75611-.60645.17845a3.48085,3.48085,0,0,1-1.7922,1.17989c-.8976.33071-1.11385.206-1.79138-.47821a17.62673,17.62673,0,0,1-2.67194-4.4262l-.13561-.33686c-.6201-1.0751-.60386-1.14975.51995-1.73258a10.078,10.078,0,0,1,1.21249-.54942,54.55634,54.55634,0,0,0,5.79437-2.43385,5.91742,5.91742,0,0,1,1.13609-.40153l.583.31353-.1715.54066c-.647.74782-.64315.75164.23917,1.09421.856.33115,1.67241.65791,1.51619,1.8543-.05321.42909.37247.70045.66485.96459.573.51258,1.18.98015,1.75645,1.48561a9.79081,9.79081,0,0,1,.94031.93747c.85967,1.00429.80947,1.25765-.41149,1.662a48.68718,48.68718,0,0,0-6.14514,2.53452c-.88819.4433-2.75652,1.27009-2.24748-.39782Zm-5.84881-22.15586-.42513-.34777a2.077,2.077,0,0,0-1.42545.73183l.11527.52976c.39716.2954.75721.05077,1.10144-.12209a.94681.94681,0,0,0,.63387-.79173Zm-3.4447,1.44948-.23248-.28037a4.306,4.306,0,0,0-2.46455,1.13977l-.01992.34013.41735.1517a8.44516,8.44516,0,0,0,2.14407-1.08832l.15553-.26291Zm-1.76669,6.47177a1.0818,1.0818,0,0,1-1.02053-.56307,69.17191,69.17191,0,0,0-4.00244-5.75371l-.20192-.30016c-.39442-.62678-.39442-.67428.27655-.96677,1.8506-.8099,3.70461-1.61265,5.56476-2.39142.8193-.34273,1.6619-.62937,2.49838-.93335l.81574-.22212c.27343-.037.65734-.08076.72379.24913.07749.3704-.34641.36085-.5827.46238a52.09662,52.09662,0,0,0-6.14147,2.86183l-.21543.11051c-.33413.24012-.9841.35761-.67726.93078.25883.48529.77754.22618,1.19666.07094a50.89288,50.89288,0,0,0,5.238-2.22417,19.34415,19.34415,0,0,1,2.12019-.89092c.57632-.20777,1.02422-.19808,1.218.50865l.285.38529c.39784.65693.27273.88218-.37738,1.36175a20.24143,20.24143,0,0,1-7.48029,3.27306l-.11433.03043c-.25964.10683-.74794.00914-.60686.51245a.69168.69168,0,0,0,.84043.52868,10.90888,10.90888,0,0,0,1.16215-.33713,53.1935,53.1935,0,0,0,5.16773-2.07612,9.92194,9.92194,0,0,1,2.3363-.56609l.58271.28953-.39484.52214q-1.42908.65775-2.8482,1.34156l-.19156.25377.32021.06371c.54165-.14844,1.08522-.30643,1.63135-.45173l.82611-.17232a.71655.71655,0,0,1,.8287.55311.709.709,0,0,1-.39061.80591l-.43809.20561c-2.22223.60986-4.36249,1.463-6.53562,2.20792a13.22943,13.22943,0,0,1-1.41319.31994Zm3.85359,5.76722a.94452.94452,0,0,1-1.03881-.61971c-.23248-.49537.07682-.73209.40112-1.00168a5.93377,5.93377,0,0,1,2.46032-1.4825l.33058-.15212c.28965-.15826.5969-.3299.46183-.73115-.12838-.38775-.45528-.39825-.79909-.33072a11.3875,11.3875,0,0,0-2.15758.78136,4.07465,4.07465,0,0,1-1.48536.47916,3.48449,3.48449,0,0,1-1.07974-.09414.694.694,0,0,1-.30289-1.21686,2.81019,2.81019,0,0,1,.95027-.71765q3.08962-1.23285,6.14214-2.55189a1.75781,1.75781,0,0,1,1.90012.12132c.56048.38774.65557.58216.25991,1.13213-.23125.32771-.5924.55379-.74138.94426l.05716.56293.453.061.56852-.20261c.49921-.16127,1.03117-.41776,1.37212.2359a1.20976,1.20976,0,0,1-.47561,1.84009,17.2679,17.2679,0,0,1-2.89173,1.22436,20.61511,20.61511,0,0,0-3.44483,1.466,1.645,1.645,0,0,1-.94.25254Zm-2.85489-21.73933a.74175.74175,0,0,1-.4928.6351,29.17112,29.17112,0,0,1-4.59484,1.84051c-.28678.08756-.6029.0734-.70782-.26291-.11528-.3505.18187-.49908.45133-.59991a40.7866,40.7866,0,0,0,4.53414-1.99221c.418-.2228.81.01269.81.37942Zm28.60089-75.56025a.78839.78839,0,0,1,.85885.46934c.11911.337-.4003.8594-1.007,1.00716-1.16651.28692-2.3404.55256-3.5125.81915-.37738.08418-.8197.28037-.97469-.31339a1.14585,1.14585,0,0,1,.60413-1.29776c.53646-.15827,1.09884-.21516,1.64881-.33072a8.11633,8.11633,0,0,1,2.38242-.35378Zm-2.55937,4.91408c-.35023-.0199-.64.04886-.71083-.25514l.36716-.40764a13.12534,13.12534,0,0,1,5.812-1.30445l.4958.22471-.34764.40807c-1.90749.46252-3.8192.9107-5.61645,1.33445Zm33.59452,18.37937-.03329.23235a7.898,7.898,0,0,1-3.47212,1.9783l-.38475-.21843.12581-.41926c1.16242-.76117,2.25456-1.70093,3.79136-1.54622l-.027-.02674Zm-8.81121-9.668-.1348.25543c-.55979.31394-1.11631.634-1.69956.89378a.606.606,0,0,1-.83171-.26686l.17478-.768a1.82263,1.82263,0,0,1,2.17735-.509l.31394.39468Zm8.2656,4.90755-.1517.18885a14.25632,14.25632,0,0,1-2.75749,1.20687l-.39088-.16083.13807-.304a7.79929,7.79929,0,0,1,2.70372-1.29777c.25909-.05089.4913.01992.45828.36685ZM177.88235,157.646c-.07122.51588-.45937.65436-.83348.77222-.3337.10412-.70386.22227-.98751-.12482l-.03724-.44846a1.42628,1.42628,0,0,1,1.67909-.46156l.17914.26262Zm-6.45294,2.07669.19388-.30671a3.62422,3.62422,0,0,1,1.809-.55269l.23223.3168a2.2707,2.2707,0,0,1-2.00233.80933l-.23276-.26673Zm-37.21058,44.71392c-.00914.31708-.27627.3677-.49142.45228-1.08644.42432-2.17423.83894-3.25942,1.26448a20.97164,20.97164,0,0,0-3.1923,1.42124c-.35391.21283-.59375.082-.77973-.26523-.18759-.35446-.00573-.56047.27669-.66144,2.07326-.74111,3.87692-2.12946,6.09808-2.50384a4.74116,4.74116,0,0,1,.95436-.09823l.39374.39074Zm-37.72248,9.62668.32595.10885-.07027.30646a1.375,1.375,0,0,1-1.19967.40807l-.12511-.18609c.16209-.53526.70442-.41722,1.0691-.63729Zm-20.374.40794a.86687.86687,0,0,1-.73825.793.54039.54039,0,0,1-.68422-.33017c-.10792-.32119.34068-.72488.86022-.79146a.44177.44177,0,0,1,.56225.32867Z"/></svg>