<?xml version="1.0" encoding="UTF-8" standalone="no"?>
<!DOCTYPE svg PUBLIC "-//W3C//DTD SVG 1.1//EN" "http://www.w3.org/Graphics/SVG/1.1/DTD/svg11.dtd">
<svg version="1.1" xmlns="http://www.w3.org/2000/svg" xmlns:xlink="http://www.w3.org/1999/xlink" preserveAspectRatio="xMidYMid meet" viewBox="0 0 500 500" width="500" height="500"><defs><path d="M351.56 265.63L453.13 437.5L250 437.5L46.88 437.5L148.43 265.63L250 93.75L351.56 265.63Z" id="cF9r56usF"></path><path d="M227.12 194.09L238.28 183.51L250.89 202.68L265.63 199.26L274.01 202.68L301.56 210.9L250.89 125L200.52 213.63L227.12 194.09Z" id="baiMAOmqi"></path><path d="M211.69 320.31L282.25 437.5L141.12 437.5L0 437.5L70.56 320.31L141.12 203.12L211.69 320.31Z" id="a4xgfcmRMc"></path><path d="M443.47 343.75L502.75 437.5L384.19 437.5L265.63 437.5L324.9 343.75L384.19 250L443.47 343.75Z" id="eKZ47gs0J"></path></defs><g><g><g><use xlink:href="#cF9r56usF" opacity="1" fill="#000000" fill-opacity="1"></use></g><g><use xlink:href="#baiMAOmqi" opacity="1" fill="#ffffff" fill-opacity="1"></use><g><use xlink:href="#baiMAOmqi" opacity="1" fill-opacity="0" stroke="#000000" stroke-width="1" stroke-opacity="1"></use></g></g><g><use xlink:href="#a4xgfcmRMc" opacity="1" fill="#000000" fill-opacity="1"></use><g><use xlink:href="#a4xgfcmRMc" opacity="1" fill-opacity="0" stroke="#000000" stroke-width="0" stroke-opacity="1"></use></g></g><g><use xlink:href="#eKZ47gs0J" opacity="1" fill="#000000" fill-opacity="1"></use></g></g></g></svg>